<svg width="191" height="126" viewBox="0 0 191 126" fill="none" xmlns="http://www.w3.org/2000/svg">
<path d="M155.728 62.5C162.304 98.3733 131.093 126.297 80.7281 125.5C32.6347 129.107 -2.82467 108.752 5.72809 75.5C9.85445 55.8934 33.324 34.2514 71.2281 27.5C112.097 27.5 145.728 33 155.728 62.5Z" fill="#EFF1F7"/>
<path d="M123.729 37C123.729 57.4345 101.776 73.9746 72.2285 73.9746C42.6813 73.9746 18.7285 57.4092 18.7285 36.9746C18.7285 16.5401 40.6813 0 70.2285 0C99.7757 0 123.729 16.5655 123.729 37Z" fill="#EFF1F7"/>
<path d="M137.658 51.1719C147.158 58.6719 145.252 68.6383 145.039 70.5795C141.453 74.6535 131.657 72.3612 123.158 64.8816C118.08 58.1658 114.369 48.4739 117.658 46.1718C120.947 43.8697 128.158 43.6719 137.658 51.1719Z" fill="#393939"/>
<circle cx="53.2285" cy="36.5" r="4.5" fill="#393939"/>
<path d="M42.2279 53.0001C42.2279 70.1209 35.2883 84.0001 26.7279 84.0001C1.11885 84.5913 6.22789 79.5103 14.7279 57.4984C23.2279 35.4864 12.6289 23.3265 30.2279 26.4984C38.7883 26.4984 42.2279 35.8793 42.2279 53.0001Z" fill="#EFF1F7"/>
<path d="M39.6022 63.0162C34.5885 88.5034 37.9552 105.613 29.7273 103.994C19.5994 106.265 -2.93871 103.233 6.35219 68.9941C11.3659 43.507 23.9994 12.3185 32.2273 13.9371C40.4552 15.5556 44.6159 37.5291 39.6022 63.0162Z" fill="#EFF1F7"/>
<path d="M190.228 49.942C187.383 55.9135 170.174 63.7942 162.229 66.942C151.459 66.942 148.729 65.003 148.729 56.4426C150.278 49.5595 152.067 49.6275 162.229 46.944C179.434 43.5089 194.395 41.5523 190.228 49.942Z" fill="#393939"/>
<circle cx="21.2285" cy="43.5" r="11.5" fill="#FFB2B2"/>
<circle cx="89.2285" cy="43.5" r="11.5" fill="#FFB2B2"/>
<circle cx="78.2285" cy="33.5" r="4.5" fill="#393939"/>
<circle cx="30.2285" cy="33.5" r="4.5" fill="#393939"/>
</svg>
