<svg width="362" height="390" viewBox="0 0 362 390" fill="none" xmlns="http://www.w3.org/2000/svg">
<path d="M205.071 316.264C211.178 323.751 207.335 343.93 194.069 354.753C180.803 365.575 169.569 372.253 141.569 369.253C130.569 369.259 120.304 352.582 133.57 341.76C146.837 330.938 198.963 308.776 205.071 316.264Z" fill="#DDA624"/>
<path d="M116.071 300.264C122.178 307.751 118.335 327.93 105.069 338.753C91.8026 349.575 80.569 356.253 52.569 353.253C41.5691 353.259 31.3039 336.582 44.5703 325.76C57.8367 314.938 109.963 292.776 116.071 300.264Z" fill="#DDA624"/>
<path d="M353.914 205.302C357.124 204.495 359.867 207.716 358.557 210.755C347.966 235.314 340.594 250.892 325.242 275.333C318.534 284.189 305.13 301.279 293.749 309.817C291.997 311.131 289.551 310.56 288.38 308.708L239.478 231.289C238.714 230.079 238.654 228.552 239.322 227.286L250.622 205.877C251.654 203.92 247.204 199.215 248.957 200.563C249.491 200.974 269.822 211.4 290.492 216.333C301.642 217.629 308.539 217.388 321.992 213.333L353.914 205.302Z" fill="#E3DCE0"/>
<path d="M154.743 52.9924C176.981 74.8594 149.109 92.7963 126.243 116.051C103.376 139.305 57.476 159.079 35.2378 137.212C12.9995 115.345 25.8763 76.2469 48.7426 52.9924C71.6088 29.7379 132.504 31.1254 154.743 52.9924Z" fill="#E3DCE0"/>
<path d="M169.225 152.097C155.464 198.322 100.496 291.567 83.7421 286.58C66.9881 281.592 40.4816 265.276 54.2421 219.051C102.742 179.551 131.988 44.5916 148.742 49.579C165.496 54.5664 182.985 105.872 169.225 152.097Z" fill="#E3DCE0"/>
<ellipse cx="172.242" cy="266.051" rx="150" ry="76.5" fill="#E3DCE0"/>
<path d="M40.7272 187.424C40.1422 188.171 38.9438 187.76 38.9401 186.811L38.7481 137.409C38.7455 136.735 39.3967 136.251 40.041 136.449L71.4161 146.062C72.0872 146.267 72.3432 147.082 71.9103 147.634L40.7272 187.424Z" fill="#DDA624"/>
<ellipse cx="55.6046" cy="141.129" rx="17.5856" ry="8.5" transform="rotate(18.2457 55.6046 141.129)" fill="#DDA624"/>
<path d="M329.242 263.551C329.242 269.619 325.341 276.009 316.971 282.592C308.702 289.095 296.924 295.088 283.239 300.422C256.063 311.014 222.534 318.566 197.383 322.55C171.676 322.446 148.314 311.99 131.344 297.526C114.133 282.855 104.242 264.748 104.242 250.051C104.242 235.733 113.712 221.973 130.717 211.532C147.639 201.141 171.334 194.551 197.771 194.551C223.956 194.551 257.274 204.388 284.091 218.449C297.468 225.464 308.966 233.396 317.043 241.436C325.251 249.606 329.242 257.192 329.242 263.551Z" fill="#D7C6CF" stroke="#AF99A5" stroke-width="10"/>
<path d="M105.627 100.007C105.627 110.5 96.6727 119.007 85.627 119.007C74.5813 119.007 77.627 128.503 77.627 118.01C77.627 107.516 80.1965 114.551 91.2422 114.551C102.288 114.551 105.627 89.5136 105.627 100.007Z" fill="#393939"/>
</svg>
