<svg width="146" height="137" viewBox="0 0 146 137" fill="none" xmlns="http://www.w3.org/2000/svg">
<path d="M90.9581 104.451C93.7107 107.778 91.9787 116.747 85.9999 121.557C80.0212 126.367 74.9585 129.335 62.3398 128.001C57.3824 128.004 52.7562 120.592 58.735 115.782C64.7137 110.972 88.2055 101.123 90.9581 104.451Z" fill="#DDA624"/>
<path d="M53.5524 101.339C56.305 104.667 54.5731 113.636 48.5943 118.446C42.6156 123.255 37.5529 126.223 24.9341 124.89C19.9768 124.893 15.3506 117.481 21.3294 112.671C27.3081 107.861 50.7998 98.0117 53.5524 101.339Z" fill="#DDA624"/>
<path d="M122 83.6413C122 102.617 94.6894 118 61 118C27.3106 118 0 99.3344 0 80.3587C0 61.3829 27.3106 46 61 46C94.6894 46 122 64.6656 122 83.6413Z" fill="#F8F56E"/>
<path d="M138.137 59.1745C141.355 58.3812 144.088 61.6247 142.727 64.6462C138.812 73.3328 135.496 79.7943 129.449 89.2273C126.727 92.7484 120.669 97.509 115.584 100.921C113.795 102.121 111.399 101.571 110.222 99.7671L91.2993 70.779C90.4985 69.5521 90.4324 67.9856 91.1272 66.6957L94.5294 60.3792C95.5906 58.4087 94.863 56.0642 96.8903 57.0124C100.154 58.5388 106.882 61.4197 113.692 63.0123C118.748 63.5884 121.875 63.4811 127.976 61.6794L138.137 59.1745Z" fill="#F8F56E"/>
<path d="M90 33.7153C90 52.3358 68.3575 62 41.9385 62C15.5194 62 2 55.0511 2 36.4307C2 17.8102 20.0322 0 46.4513 0C72.8703 0 90 15.0949 90 33.7153Z" fill="#F8F56E"/>
<path d="M124 83.7101C124 85.5059 123.063 87.6779 120.367 90.239C117.681 92.7907 113.712 95.2641 108.87 97.5439C99.3842 102.009 87.5912 105.252 78.6026 106.996C70.4763 106.85 62.8642 102.812 57.1476 96.9264C51.2528 90.8571 48 83.478 48 77.7428C48 72.3088 50.9586 66.988 56.5395 62.8488C62.1198 58.71 70.0646 56 79.0573 56C87.7732 56 99.3339 60.0318 108.821 66.0405C113.513 69.0122 117.448 72.3141 120.153 75.5655C122.92 78.8926 124 81.6749 124 83.7101Z" fill="#ECE848" stroke="#CCC935" stroke-width="10"/>
<circle cx="59.5" cy="33.5" r="1.5" fill="#D9D9D9"/>
<circle cx="57.5" cy="33.5" r="6.5" fill="#393939"/>
<ellipse cx="58.5" cy="36" rx="1.5" ry="1" fill="#D9D9D9"/>
<ellipse cx="55" cy="31.5" rx="4" ry="3.5" fill="#D9D9D9"/>
<circle cx="14.5" cy="33.5" r="6.5" fill="#393939"/>
<ellipse cx="16.5" cy="36" rx="1.5" ry="1" fill="#D9D9D9"/>
<ellipse cx="13" cy="31.5" rx="3" ry="3.5" fill="#D9D9D9"/>
<path d="M11.0384 46.1153C10.0574 45.9741 9.96146 44.5908 10.9046 44.1868L34.6857 33.9996C35.3063 33.7337 35.966 34.1346 36.0061 34.802L36.8313 48.5304C36.871 49.19 36.2828 49.7483 35.6448 49.6564L11.0384 46.1153Z" fill="#E0AC1E"/>
<path d="M38 42.1404C38 46.4811 37.9069 50 36.25 50C34.5931 50 32 46.4811 32 42.1404C32 37.7996 33.8431 34 35.5 34C37.1569 34 38 37.7996 38 42.1404Z" fill="#E0AC1E"/>
</svg>
