<svg width="232" height="681" viewBox="0 0 232 681" fill="none" xmlns="http://www.w3.org/2000/svg">
<path fill-rule="evenodd" clip-rule="evenodd" d="M0 0V54.647L4.23242 53.9817L12.7891 55.7246L20.5078 59.2839L28.7168 64.1702L36.0527 69.7549L41.8516 76.2832L46.9863 83.0562L51.7051 90.7373L54.6406 98.6985L58.3477 116.926L58.666 126.983L58.2852 136.168L57.0723 161.486L58.3359 180.239L46.3887 170.325L33.8145 161.774L4.58008 149.946L0 147.23V592C0 641.153 39.8457 681 89 681H143C192.154 681 232 641.153 232 592V0H0ZM60.7129 287C61.5664 287 62.7383 287.48 64.2324 288.44C65.1543 289.033 66.0156 289.687 66.8145 290.402C67.3105 290.844 67.7832 291.311 68.2324 291.8C69.4062 293.08 69.9922 294.093 69.9922 294.84C69.9395 296.227 69.0312 300.467 67.2715 307.56L65.5918 314.76L64.793 318.84C63.832 323.693 63.0312 327.48 62.3926 330.2C61.8047 332.92 61.2461 334.733 60.7129 335.64C60.0723 336.76 58.8984 337.907 57.1914 339.08C55.4863 340.2 53.5664 341.133 51.4316 341.88C49.3516 342.627 47.3789 343 45.5117 343C43.5918 343 41.3262 342.2 38.7129 340.6C36.1523 338.947 33.9395 336.84 32.0723 334.28C30.2598 331.72 29.3516 329.107 29.3516 326.44C29.3516 323.933 30.1797 321.96 31.832 320.52C33.5391 319.027 35.4863 318.28 37.6719 318.28C39.6465 318.28 41.2715 318.813 42.5527 319.88C42.498 320.413 42.4727 321.187 42.4727 322.2C42.4727 324.12 42.6582 325.96 43.0312 327.72C43.4062 329.427 43.9121 330.787 44.5527 331.8C45.1914 332.813 45.832 333.32 46.4727 333.32C47.8047 333.32 49.0859 331.56 50.3125 328.04C51.5918 324.467 52.7129 320.04 53.6719 314.76C54.0449 312.733 54.498 310.467 55.0312 307.96C55.9395 303.693 56.498 300.6 56.7129 298.68C54.3652 299 52.4727 299.213 51.0312 299.32C50.4453 299.373 49.2188 299.507 47.3516 299.72C45.4863 299.88 43.8047 300.12 42.3125 300.44C41.1387 299.907 40.2051 299.08 39.5117 297.96C38.873 296.787 38.5527 295.507 38.5527 294.12C38.5527 292.307 39.0859 290.68 40.1523 289.24C43.2988 288.44 46.7383 287.88 50.4727 287.56C54.2598 287.187 57.6719 287 60.7129 287ZM90.4355 297.8C94.2207 298.227 97.6621 299.373 100.754 301.24C103.9 303.053 106.355 305.24 108.115 307.8C109.875 310.36 110.754 312.92 110.754 315.48C110.754 319.32 109.768 323.4 107.795 327.72C105.822 332.04 103.074 335.667 99.5547 338.6C96.0352 341.533 92.1152 343 87.7949 343C85.6621 343 83.3945 342.227 80.9941 340.68C78.5938 339.08 76.5684 337.16 74.9141 334.92C73.3145 332.627 72.5156 330.6 72.5156 328.84C72.5156 325.587 72.9141 322.253 73.7148 318.84C74.5156 315.373 75.7422 312.013 77.3945 308.76C78.9414 307.907 80.4883 307.48 82.0352 307.48C82.7285 307.48 83.3672 307.56 83.9551 307.72C83.7422 307.08 83.6348 306.333 83.6348 305.48C83.6348 303.773 84.2207 302.227 85.3945 300.84C86.6211 299.453 88.3008 298.44 90.4355 297.8ZM84.9141 333.88C89.3418 332.387 92.7812 329.827 95.2344 326.2C97.6875 322.573 99.3145 318.253 100.115 313.24C97.7148 311.533 94.4609 310.68 90.3555 310.68C89.7324 310.68 89.2012 310.69 88.7598 310.71C88.4824 310.723 88.2402 310.739 88.0352 310.76C88.6211 311.827 88.9141 313.027 88.9141 314.36C87.5273 316.547 86.4609 318.973 85.7148 321.64C84.9688 324.253 84.5938 326.893 84.5938 329.56C84.5938 331.16 84.7012 332.6 84.9141 333.88ZM124.654 343C123.268 343 121.693 342.547 119.934 341.64C118.227 340.68 116.734 339.587 115.453 338.36C114.227 337.08 113.613 336.013 113.613 335.16C113.613 334.2 113.961 332.787 114.654 330.92C115.348 329.053 116.387 326.493 117.773 323.24C118.84 320.733 119.641 318.787 120.174 317.4C120.504 316.511 120.732 315.785 120.857 315.221C120.936 314.871 120.975 314.584 120.975 314.36C120.975 314.075 120.855 313.778 120.617 313.469C120.498 313.316 120.352 313.159 120.174 313C119.693 312.467 118.947 311.827 117.934 311.08C116.76 310.173 115.881 309.453 115.295 308.92C114.76 308.387 114.494 307.827 114.494 307.24C114.494 306.12 115 304.813 116.014 303.32C117.08 301.827 118.307 300.547 119.693 299.48C121.135 298.413 122.361 297.88 123.375 297.88C124.602 297.88 125.934 298.413 127.375 299.48C128.867 300.547 130.121 301.827 131.135 303.32C132.201 304.76 132.734 305.933 132.734 306.84C132.734 309.187 132.121 312.547 130.895 316.92C129.721 321.24 128.201 325.907 126.334 330.92C127.613 330.333 128.734 329.72 129.693 329.08C130.654 328.44 131.988 327.453 133.693 326.12C136.094 326.92 137.854 328.067 138.975 329.56C140.094 331 140.654 332.573 140.654 334.28C140.654 335.667 139.748 337.027 137.934 338.36C136.174 339.693 134.014 340.813 131.453 341.72C128.895 342.573 126.627 343 124.654 343ZM186.475 326.12C188.822 326.92 190.555 328.04 191.676 329.48C192.85 330.867 193.436 332.467 193.436 334.28C193.436 335.56 192.529 336.893 190.715 338.28C188.902 339.613 186.742 340.733 184.234 341.64C181.729 342.547 179.596 343 177.836 343C176.609 343 175.195 342.52 173.596 341.56C171.996 340.6 170.609 339.507 169.436 338.28C168.314 337 167.756 336.013 167.756 335.32C167.756 334.787 168.342 332.707 169.516 329.08C171.596 322.733 172.635 318.733 172.635 317.08C172.635 316.782 172.6 316.553 172.531 316.394C172.451 316.211 172.326 316.12 172.156 316.12C170.021 316.12 166.049 319.853 160.234 327.32C160.021 328.173 159.781 329.24 159.516 330.52C159.303 331.8 159.143 332.707 159.035 333.24C158.449 336.387 157.889 338.813 157.355 340.52C156.875 342.173 156.234 343 155.436 343C154.049 343 152.475 342.547 150.715 341.64C149.008 340.68 147.516 339.587 146.234 338.36C145.008 337.08 144.395 336.013 144.395 335.16C144.395 334.2 144.742 332.787 145.436 330.92C146.129 329.053 147.168 326.493 148.555 323.24C149.621 320.733 150.422 318.787 150.955 317.4C151.488 315.96 151.756 314.947 151.756 314.36C151.756 313.933 151.488 313.48 150.955 313C150.697 312.713 150.361 312.395 149.947 312.046C149.594 311.747 149.184 311.425 148.715 311.08C147.541 310.173 146.662 309.453 146.076 308.92C145.541 308.387 145.275 307.827 145.275 307.24C145.275 306.12 145.781 304.813 146.795 303.32C147.861 301.827 149.088 300.547 150.475 299.48C151.916 298.413 153.143 297.88 154.156 297.88C155.275 297.88 156.555 298.387 157.996 299.4C159.488 300.413 160.77 301.587 161.836 302.92C162.955 304.2 163.516 305.187 163.516 305.88C163.516 307.16 163.355 308.733 163.035 310.6C162.77 312.467 162.395 314.307 161.916 316.12C165.809 311 169.035 307.053 171.596 304.28C174.156 301.453 176.156 300.04 177.596 300.04C178.609 300.04 179.836 300.547 181.275 301.56C182.715 302.573 183.941 303.747 184.955 305.08C185.572 305.821 186.012 306.464 186.271 307.009C186.461 307.405 186.555 307.748 186.555 308.04C186.502 308.947 186.129 310.493 185.436 312.68C184.742 314.867 183.756 317.773 182.475 321.4C180.77 326.093 179.676 329.267 179.195 330.92C180.85 330.067 182.129 329.347 183.035 328.76C183.996 328.12 185.143 327.24 186.475 326.12ZM26.2715 434.28C24.7246 435.507 22.7246 436.653 20.2715 437.72C17.8184 438.733 15.8984 439.24 14.5117 439.24C12.8574 439.24 10.9375 438.307 8.75195 436.44C6.61719 434.52 4.80469 432.253 3.31055 429.64C1.87109 426.973 1.20508 424.627 1.31055 422.6C1.68555 416.893 2.99219 410.893 5.23047 404.6C7.4707 398.307 10.5645 393 14.5117 388.68C18.457 384.36 22.9922 382.2 28.1113 382.2C30.832 382.2 33.2578 382.92 35.3906 384.36C37.5781 385.747 39.2578 387.587 40.4316 389.88C41.6582 392.12 42.2715 394.467 42.2715 396.92C42.2715 398.733 41.6309 400.173 40.3516 401.24C39.0703 402.307 37.4453 402.84 35.4707 402.84C33.8184 402.84 32.0312 402.44 30.1113 401.64C30.1641 401.01 30.2031 400.484 30.2305 400.061C30.2578 399.624 30.2715 399.297 30.2715 399.08C30.2715 397.053 29.9785 395.533 29.3906 394.52C28.8574 393.507 28.084 393 27.0703 393C25.3652 393 23.418 394.867 21.2305 398.6C19.0449 402.28 17.125 406.867 15.4707 412.36C13.8711 417.853 12.9648 423.107 12.752 428.12C17.9785 428.067 23.8711 426.787 30.4316 424.28L30.752 420.6C29.6855 420.707 28.8047 420.76 28.1113 420.76C26.457 420.76 25.0176 420.6 23.791 420.28C22.5645 419.96 21.8438 419.48 21.6309 418.84C21.418 418.36 21.3105 417.64 21.3105 416.68C21.3105 415.4 21.4707 414.067 21.791 412.68C22.1641 411.293 22.5645 410.36 22.9922 409.88C23.4766 409.325 24.0293 408.895 24.6504 408.588C24.9844 408.423 25.3379 408.293 25.7109 408.2C26.832 407.933 28.457 407.8 30.5918 407.8C34.6445 407.8 37.4707 408.707 39.0703 410.52C40.7246 412.28 41.5508 414.893 41.5508 418.36C41.5508 420.973 41.0703 424.52 40.1113 429C39.1504 433.427 37.9785 437.32 36.5918 440.68C35.2051 444.04 33.8711 445.72 32.5918 445.72C31.5254 445.72 30.3242 445.48 28.9922 445C28.3691 444.767 27.791 444.502 27.2578 444.207C26.6934 443.893 26.1777 443.544 25.7109 443.16C24.8047 442.467 24.3516 441.827 24.3516 441.24C24.4043 440.387 24.6973 439.373 25.2305 438.2C25.8184 437.027 26.4316 435.987 27.0703 435.08L26.2715 434.28ZM59.1152 439C57.6758 439 56.1016 438.547 54.3945 437.64C52.6875 436.68 51.2207 435.587 49.9941 434.36C48.7676 433.08 48.1543 432.013 48.1543 431.16C48.1543 430.147 48.3691 428.84 48.7949 427.24C49.2207 425.587 49.8613 423.453 50.7148 420.84C51.5684 418.12 52.209 415.96 52.6348 414.36C53.0625 412.707 53.2754 411.373 53.2754 410.36C53.2754 409.933 53.0352 409.48 52.5547 409C52.0742 408.52 51.3281 407.88 50.3145 407.08C49.1426 406.12 48.2891 405.373 47.7559 404.84C47.5059 404.591 47.3145 404.342 47.1816 404.093C47.0312 403.809 46.9551 403.524 46.9551 403.24C46.9551 402.12 47.4883 400.813 48.5547 399.32C49.6211 397.827 50.875 396.547 52.3145 395.48C53.7559 394.413 54.9824 393.88 55.9941 393.88C57.1152 393.88 58.3945 394.387 59.8359 395.4C61.2754 396.413 62.5293 397.587 63.5957 398.92C64.6621 400.2 65.1953 401.187 65.1953 401.88C65.1953 403.907 64.7949 406.573 63.9941 409.88L64.9551 410.36C66.1816 408.387 67.5156 406.04 68.9551 403.32C70.4492 400.547 71.3555 398.84 71.6758 398.2L73.1953 395.32C76.875 395.213 79.6211 395.88 81.4355 397.32C83.248 398.76 84.1543 400.68 84.1543 403.08C84.1543 405.427 83.3809 407.773 81.8359 410.12C77.9941 411.4 74.7148 412.68 71.9941 413.96C69.3281 415.187 66.6348 416.653 63.9141 418.36C63.7559 424.28 63.2754 429.213 62.4746 433.16C61.7285 437.053 60.6074 439 59.1152 439ZM103.053 393.8C106.838 394.227 110.279 395.373 113.371 397.24C116.518 399.053 118.973 401.24 120.732 403.8C122.492 406.36 123.371 408.92 123.371 411.48C123.371 415.32 122.385 419.4 120.412 423.72C118.439 428.04 115.691 431.667 112.172 434.6C108.652 437.533 104.732 439 100.412 439C98.2793 439 96.0117 438.227 93.6113 436.68C91.2109 435.08 89.1855 433.16 87.5312 430.92C85.9316 428.627 85.1328 426.6 85.1328 424.84C85.1328 421.587 85.5312 418.253 86.332 414.84C87.1328 411.373 88.3594 408.013 90.0117 404.76C91.5586 403.907 93.1055 403.48 94.6523 403.48C95.3457 403.48 95.9844 403.56 96.5723 403.72C96.3594 403.08 96.252 402.333 96.252 401.48C96.252 399.773 96.8379 398.227 98.0117 396.84C99.2383 395.453 100.918 394.44 103.053 393.8ZM97.5312 429.88C101.959 428.387 105.398 425.827 107.852 422.2C110.305 418.573 111.932 414.253 112.732 409.24C110.332 407.533 107.078 406.68 102.973 406.68C101.959 406.68 101.186 406.707 100.652 406.76C100.916 407.24 101.119 407.747 101.264 408.28C101.441 408.933 101.531 409.626 101.531 410.36C100.145 412.547 99.0781 414.973 98.332 417.64C97.5859 420.253 97.2109 422.893 97.2109 425.56C97.2109 427.16 97.3184 428.6 97.5312 429.88ZM137.752 439C136.365 439 134.844 438.493 133.191 437.48C131.592 436.413 130.23 435.213 129.111 433.88C127.992 432.493 127.432 431.373 127.432 430.52C127.432 429.667 127.672 428.44 128.15 426.84L129.752 422.04C130.338 420.44 130.711 419.427 130.871 419C131.564 417.133 132.178 415.373 132.711 413.72C133.299 412.067 133.592 410.947 133.592 410.36C133.592 409.933 133.324 409.48 132.791 409C132.311 408.467 131.564 407.827 130.551 407.08C129.377 406.173 128.498 405.453 127.912 404.92C127.377 404.387 127.111 403.827 127.111 403.24C127.111 402.12 127.617 400.813 128.631 399.32C129.697 397.827 130.924 396.547 132.311 395.48C133.752 394.413 134.979 393.88 135.992 393.88C137.111 393.88 138.391 394.387 139.832 395.4C141.324 396.413 142.605 397.587 143.672 398.92C144.791 400.2 145.352 401.187 145.352 401.88C145.352 405.187 144.791 409.16 143.672 413.8C142.551 418.44 141.111 423.053 139.352 427.64C142.871 424.707 146.018 421.453 148.791 417.88C151.564 414.307 153.512 411.107 154.631 408.28C154.738 404.813 155.139 401.907 155.832 399.56C156.578 397.213 157.432 396.04 158.391 396.04C159.777 396.04 161.299 396.547 162.951 397.56C164.658 398.52 166.098 399.667 167.271 401C168.445 402.28 169.031 403.293 169.031 404.04C168.979 405.16 168.471 407.267 167.512 410.36C166.551 413.4 165.219 417.32 163.512 422.12C162.498 425.107 161.912 426.813 161.752 427.24C163.299 426.547 164.686 425.827 165.912 425.08C167.191 424.28 168.525 423.293 169.912 422.12C172.258 422.92 173.992 424.04 175.111 425.48C176.285 426.867 176.871 428.467 176.871 430.28C176.871 431.56 175.965 432.893 174.15 434.28C172.338 435.613 170.178 436.733 167.672 437.64C165.164 438.547 163.031 439 161.271 439C160.15 439 158.818 438.547 157.271 437.64C155.725 436.68 154.338 435.613 153.111 434.44C151.938 433.213 151.352 432.307 151.352 431.72C151.352 431.133 151.537 430.413 151.912 429.56L153.271 426.84C153.805 425.827 154.205 425.107 154.471 424.68L152.471 423.56C149.537 428.947 147.004 432.867 144.871 435.32C142.791 437.773 140.418 439 137.752 439ZM209.246 395.24C212.072 395.24 214.58 395.907 216.766 397.24C218.953 398.573 220.633 400.413 221.807 402.76C223.033 405.053 223.646 407.64 223.646 410.52C223.646 414.787 222.42 419.16 219.967 423.64C217.566 428.067 214.393 431.747 210.445 434.68C206.553 437.56 202.5 439 198.287 439C196.473 439 194.66 438.28 192.846 436.84C192.207 439.507 191.699 442.227 191.326 445L190.766 449.96C190.34 453.587 189.912 456.2 189.486 457.8C189.113 459.4 188.5 460.2 187.646 460.2C186.26 460.2 184.713 459.747 183.006 458.84C181.354 457.933 179.939 456.84 178.766 455.56C177.539 454.333 176.926 453.267 176.926 452.36C176.926 451.347 177.379 449.107 178.287 445.64C179.193 442.173 180.58 437.16 182.445 430.6C184.1 424.733 185.379 420.12 186.287 416.76C187.193 413.4 187.646 411.267 187.646 410.36C187.646 409.933 187.406 409.507 186.926 409.08C186.5 408.6 185.779 407.933 184.766 407.08C183.646 406.173 182.82 405.453 182.287 404.92C181.752 404.387 181.486 403.827 181.486 403.24C181.486 402.12 181.992 400.813 183.006 399.32C184.072 397.827 185.299 396.547 186.686 395.48C188.127 394.413 189.354 393.88 190.367 393.88C191.912 393.88 193.674 394.733 195.646 396.44C197.619 398.147 199.033 399.853 199.887 401.56L203.006 396.28C205.086 395.587 207.166 395.24 209.246 395.24ZM198.287 428.76C199.992 428.76 201.859 427.88 203.887 426.12C205.912 424.307 207.619 422.093 209.006 419.48C210.393 416.813 211.086 414.28 211.086 411.88C211.086 410.12 210.66 408.76 209.807 407.8C208.953 406.84 207.727 406.36 206.127 406.36C204.26 406.36 202.553 407.427 201.006 409.56C199.514 411.64 198.312 414.2 197.406 417.24C196.553 420.28 196.127 423.08 196.127 425.64C196.127 426.653 196.312 427.427 196.686 427.96C196.949 428.289 197.252 428.516 197.596 428.642C197.811 428.721 198.041 428.76 198.287 428.76ZM140.105 269.452C136.879 270.869 133.35 271.44 129.834 271.192L128.877 271.124C126.1 270.929 123.314 271.367 120.732 272.406L120.221 272.612C119.295 272.985 118.414 273.459 117.594 274.026L117.15 274.334C116.592 274.721 116.074 275.163 115.607 275.655C115.381 275.893 115.166 276.143 114.963 276.403L114.621 276.843C114.191 277.397 113.854 278.016 113.621 278.678C113.215 279.835 113.146 281.083 113.42 282.279L113.797 283.916C113.912 284.422 114.082 284.914 114.303 285.384C114.93 286.728 115.949 287.851 117.229 288.602L118.02 289.066C118.396 289.286 118.828 289.389 119.264 289.456C119.449 289.485 119.635 289.507 119.816 289.528C120.703 289.634 121.512 289.729 121.779 290.524L122.346 292.194C122.549 292.785 122.828 293.346 123.174 293.863C123.42 294.231 123.699 294.578 124.01 294.897L125.305 296.34L126.385 297.394C126.955 297.951 127.619 298.404 128.346 298.734C130.119 299.54 132.154 299.555 133.941 298.776L135.182 298.235C137 297.376 138.662 296.211 140.088 294.791C140.773 294.11 141.4 293.374 141.963 292.592C142.412 291.968 142.82 291.315 143.184 290.636L143.395 290.242C144.389 288.389 145.094 286.396 145.486 284.331L146.029 281.47L146.469 276.463C146.619 274.756 146.725 273.048 146.787 271.336L146.816 270.543C146.891 268.579 146.973 266.415 146.994 266.053M140.105 269.452C143.275 268.06 146.836 266.428 146.994 266.053ZM146.994 266.053C147 266.033 147 266.038 146.998 266.043Z" fill="#4E6B42"/>
</svg>
