<svg width="1728" height="1117" viewBox="0 0 1728 1117" fill="none" xmlns="http://www.w3.org/2000/svg">
<g clip-path="url(#clip0_78_327)">
<rect width="1728" height="1117" fill="#A6C48A"/>
<path d="M120.8 103.989C119.952 114.812 121.883 125.687 126.638 135.447C131.55 145.528 137.386 157 138.507 157C140.16 157 120.624 156.353 113.803 156.128C112.26 156.078 110.733 155.992 109.194 155.87L85.5515 154L75.2931 152.249C68.4993 151.089 61.9025 148.978 55.697 145.979L53.621 144.976C48.6983 142.597 44.1408 139.527 40.0867 135.859L39.6229 135.439C34.9159 131.18 30.9986 126.122 28.0516 120.5L26.2858 116.853C23.5845 111.273 23.6374 104.753 26.4287 99.2181C27.5019 97.09 28.9486 95.172 30.7 93.5554L34.5516 90L39.5 86C42.1376 83.6921 45.2271 81.9582 48.5758 80.9239C50.483 80.3348 52.6387 79.6728 54.5 79.1108C59.1008 77.7217 56.8681 71.5536 59.5 67.5C59.8723 66.9266 60.3116 66.2519 60.7774 65.5377C63.5582 61.2733 67.5578 57.9448 72.2498 55.9692C73.7806 55.3246 75.3706 54.8305 76.9971 54.494L82.9119 53.2703C86.9377 52.4373 91.1098 52.65 95.0301 53.888C97.364 54.625 99.5718 55.7139 101.577 57.117L102.798 57.971C105.617 59.9436 108.118 62.3356 110.214 65.064L110.988 66.0703C112.993 68.681 114.686 71.5185 116.029 74.5244L116.555 75.7005C120.162 83.7715 121.69 92.6175 121 101.431L120.8 103.989Z" fill="#4E6B42"/>
<path d="M271 -14L267.5 -6L263.5 1.5L258.5 9L252.5 15L237.5 26L228.5 30.5L220 34L196.5 43.5L180 52.5L184 37.5L186.5 22.5L185 -9L186.5 -23.5L191.5 -37L197.5 -48L206.5 -58L211.5 -62L218 -65.5L225 -68.5L233.5 -69L242 -68.5L250 -67L257.5 -64L265 -60L272 -49.5L274 -41V-32.5L273 -23L271 -14Z" fill="#4E6B42"/>
<path d="M75.5 467.005C50.3027 472.604 54 513.502 7 540.498C-20.6142 540.498 -36 532.113 -36 504.498C-36 476.884 -8.11424 458 19.5 458C47.1142 458 93.5 463.005 75.5 467.005Z" fill="#4E6B42"/>
<path d="M192.5 1011C167.303 1016.6 171 1057.5 124 1084.5C96.3858 1084.5 81 1076.11 81 1048.5C81 1020.88 108.886 1002 136.5 1002C164.114 1002 210.5 1007 192.5 1011Z" fill="#4E6B42"/>
<path d="M192.5 1011C167.303 1016.6 171 1057.5 124 1084.5C96.3858 1084.5 81 1076.11 81 1048.5C81 1020.88 108.886 1002 136.5 1002C164.114 1002 210.5 1007 192.5 1011Z" fill="#4E6B42"/>
<path d="M-16.9609 906.005C8.2364 911.604 4.53906 952.502 51.5391 979.498C79.1533 979.498 94.5391 971.113 94.5391 943.498C94.5391 915.884 66.6533 897 39.0391 897C11.4248 897 -34.9609 902.005 -16.9609 906.005Z" fill="#4E6B42"/>
<path d="M211.995 1133.5C206.396 1108.3 165.498 1112 138.502 1065C138.502 1037.39 146.887 1022 174.502 1022C202.116 1022 221 1049.89 221 1077.5C221 1105.11 215.995 1151.5 211.995 1133.5Z" fill="#4E6B42"/>
<path d="M27.0391 988.005C52.2364 993.604 48.5391 1034.5 95.5391 1061.5C123.153 1061.5 138.539 1053.11 138.539 1025.5C138.539 997.884 110.653 979 83.0391 979C55.4248 979 9.03906 984.005 27.0391 988.005Z" fill="#4E6B42"/>
<path d="M291.5 1002C266.303 1007.6 270 1048.5 223 1075.5C195.386 1075.5 180 1067.11 180 1039.5C180 1011.88 207.886 993 235.5 993C263.114 993 309.5 998.005 291.5 1002Z" fill="#6D925E"/>
<path d="M126.039 943.005C151.236 948.604 147.539 989.502 194.539 1016.5C222.153 1016.5 237.539 1008.11 237.539 980.498C237.539 952.884 209.653 934 182.039 934C154.425 934 108.039 939.005 126.039 943.005Z" fill="#4E6B42"/>
<path d="M76.5 929.005C51.3027 934.604 55 975.502 8 1002.5C-19.6142 1002.5 -35 994.113 -35 966.498C-35 938.884 -7.11424 920 20.5 920C48.1142 920 94.5 925.005 76.5 929.005Z" fill="#6D925E"/>
<path d="M175.5 927.005C150.303 932.604 154 973.502 107 1000.5C79.3858 1000.5 64 992.113 64 964.498C64 936.884 91.8858 918 119.5 918C147.114 918 193.5 923.005 175.5 927.005Z" fill="#4E6B42"/>
<path d="M349.5 1037C324.303 1042.6 328 1083.5 281 1110.5C253.386 1110.5 238 1102.11 238 1074.5C238 1046.88 265.886 1028 293.5 1028C321.114 1028 367.5 1033 349.5 1037Z" fill="#4E6B42"/>
<path d="M-31.9609 1011C-6.7636 1016.6 -10.4609 1057.5 36.5391 1084.5C64.1533 1084.5 79.5391 1076.11 79.5391 1048.5C79.5391 1020.88 51.6533 1002 24.0391 1002C-3.57517 1002 -49.9609 1007 -31.9609 1011Z" fill="#6D925E"/>
<path d="M148.5 1112.49C123.303 1106.89 127 1066 80 1039C52.3858 1039 37 1047.39 37 1075C37 1102.61 64.8858 1121.5 92.5 1121.5C120.114 1121.5 166.5 1116.49 148.5 1112.49Z" fill="#4E6B42"/>
<path d="M90.5 1048C65.3027 1053.6 69 1094.5 22 1121.5C-5.61424 1121.5 -21 1113.11 -21 1085.5C-21 1057.88 6.88576 1039 34.5 1039C62.1142 1039 108.5 1044 90.5 1048Z" fill="#4E6B42"/>
<path d="M167.039 1077C192.236 1082.6 188.539 1123.5 235.539 1150.5C263.153 1150.5 278.539 1142.11 278.539 1114.5C278.539 1086.88 250.653 1068 223.039 1068C195.425 1068 149.039 1073 167.039 1077Z" fill="#4E6B42"/>
<path d="M94.0391 1070C119.236 1075.6 115.539 1116.5 162.539 1143.5C190.153 1143.5 205.539 1135.11 205.539 1107.5C205.539 1079.88 177.653 1061 150.039 1061C122.425 1061 76.0391 1066 94.0391 1070Z" fill="#6D925E"/>
<path d="M1525.07 1023.26C1531.18 1030.75 1527.34 1050.93 1514.07 1061.75C1500.8 1072.57 1489.57 1079.25 1461.57 1076.25C1450.57 1076.26 1440.3 1059.58 1453.57 1048.76C1466.84 1037.94 1518.96 1015.78 1525.07 1023.26Z" fill="#DDA624"/>
<path d="M1436.07 1007.26C1442.18 1014.75 1438.34 1034.93 1425.07 1045.75C1411.8 1056.57 1400.57 1063.25 1372.57 1060.25C1361.57 1060.26 1351.3 1043.58 1364.57 1032.76C1377.84 1021.94 1429.96 999.776 1436.07 1007.26Z" fill="#DDA624"/>
<path d="M1673.91 912.302C1677.12 911.495 1679.87 914.716 1678.56 917.755C1667.97 942.314 1660.59 957.892 1645.24 982.333C1638.53 991.189 1625.13 1008.28 1613.75 1016.82C1612 1018.13 1609.55 1017.56 1608.38 1015.71L1559.48 938.289C1558.71 937.079 1558.65 935.552 1559.32 934.286L1570.62 912.877C1571.65 910.92 1567.2 906.215 1568.96 907.563C1569.49 907.974 1589.82 918.4 1610.49 923.333C1621.64 924.629 1628.54 924.388 1641.99 920.333L1673.91 912.302Z" fill="#E3DCE0"/>
<path d="M1474.74 759.992C1496.98 781.859 1469.11 799.796 1446.24 823.051C1423.38 846.305 1377.48 866.079 1355.24 844.212C1333 822.345 1345.88 783.247 1368.74 759.992C1391.61 736.738 1452.5 738.125 1474.74 759.992Z" fill="#E3DCE0"/>
<path d="M1489.22 859.097C1475.46 905.322 1420.5 998.567 1403.74 993.58C1386.99 988.592 1360.48 972.276 1374.24 926.051C1422.74 886.551 1451.99 751.592 1468.74 756.579C1485.5 761.566 1502.99 812.872 1489.22 859.097Z" fill="#E3DCE0"/>
<ellipse cx="1492.24" cy="973.051" rx="150" ry="76.5" fill="#E3DCE0"/>
<path d="M1360.73 894.424C1360.14 895.171 1358.94 894.76 1358.94 893.811L1358.75 844.409C1358.75 843.735 1359.4 843.251 1360.04 843.449L1391.42 853.062C1392.09 853.267 1392.34 854.082 1391.91 854.634L1360.73 894.424Z" fill="#DDA624"/>
<ellipse cx="1375.6" cy="848.129" rx="17.5856" ry="8.5" transform="rotate(18.2457 1375.6 848.129)" fill="#DDA624"/>
<path d="M1649.24 970.551C1649.24 976.619 1645.34 983.009 1636.97 989.592C1628.7 996.095 1616.92 1002.09 1603.24 1007.42C1576.06 1018.01 1542.53 1025.57 1517.38 1029.55C1491.68 1029.45 1468.31 1018.99 1451.34 1004.53C1434.13 989.855 1424.24 971.748 1424.24 957.051C1424.24 942.733 1433.71 928.973 1450.72 918.532C1467.64 908.141 1491.33 901.551 1517.77 901.551C1543.96 901.551 1577.27 911.388 1604.09 925.449C1617.47 932.464 1628.97 940.396 1637.04 948.436C1645.25 956.606 1649.24 964.192 1649.24 970.551Z" fill="#D7C6CF" stroke="#AF99A5" stroke-width="10"/>
<path d="M1425.63 807.007C1425.63 817.5 1416.67 826.007 1405.63 826.007C1394.58 826.007 1397.63 835.503 1397.63 825.01C1397.63 814.516 1400.2 821.551 1411.24 821.551C1422.29 821.551 1425.63 796.514 1425.63 807.007Z" fill="#393939"/>
</g>
<defs>
<clipPath id="clip0_78_327">
<rect width="1728" height="1117" fill="white"/>
</clipPath>
</defs>
</svg>
