<svg width="232" height="677" viewBox="0 0 232 677" fill="none" xmlns="http://www.w3.org/2000/svg">
<path fill-rule="evenodd" clip-rule="evenodd" d="M0.943359 0C0.322266 4.24341 0 8.58423 0 13V588C0 610.435 8.30078 630.932 22 646.585V640L23 630.5L25 621.5L28.5 613.5L32.5 606L37.5 598.5L43.5 592.5L58.5 581.5L67.5 577L76 573.5L99.5 564L116 555L112 570L109.5 585L111 616.5L109.5 631L104.5 644.5L98.5 655.5L89.5 665.5L84.5 669.5L78 673L72.3125 675.438C77.7168 676.463 83.2969 677 89 677H143C167.549 677 189.775 667.061 205.877 650.987C202.328 650.14 198.867 648.711 195.746 646.757C183.445 639.054 164.146 623.929 173.26 627.205C179.051 629.286 184.178 626.531 190.699 623.026C198.541 618.811 208.402 613.511 223.863 614.236C225.094 615.007 226.248 615.78 227.318 616.559C230.354 607.595 232 597.99 232 588V13C232 8.58423 231.678 4.24341 231.057 0H0.943359ZM26.8691 339C25.6426 339 24.1758 338.573 22.4688 337.72C21.375 337.119 20.3613 336.448 19.4277 335.707C18.9531 335.33 18.5 334.934 18.0684 334.52C16.8418 333.293 16.2285 332.28 16.2285 331.48C16.1758 330.627 16.416 328.84 16.9492 326.12C17.5352 323.347 17.9082 321.56 18.0684 320.76C18.2832 319.693 18.6816 317.747 19.2695 314.92C19.8555 312.04 20.3359 309.373 20.709 306.92L21.3496 303.16C22.3633 297.187 23.2949 292.333 24.1484 288.6C25.0566 284.867 25.9629 283 26.8691 283C27.7754 283 29.002 283.373 30.5488 284.12C32.1484 284.867 33.6426 285.827 35.0293 287C36.416 288.12 37.3496 289.187 37.8281 290.2C38.6816 292.12 39.8027 296.227 41.1895 302.52C42.1484 306.893 42.8691 309.907 43.3496 311.56C45.6426 308.093 48.5762 302.787 52.1484 295.64C54.4434 291.107 56.1758 287.88 57.3496 285.96C58.5762 283.987 59.6699 283 60.6289 283C61.6426 283 63.002 283.453 64.709 284.36C65.7871 284.915 66.7734 285.53 67.6719 286.205C68.2402 286.633 68.7734 287.084 69.2695 287.56C70.6016 288.787 71.2695 289.853 71.2695 290.76C71.2695 291.507 70.9492 293.613 70.3086 297.08L69.1094 303.48L67.0293 314.76C66.4961 317.907 65.9355 322.04 65.3496 327.16C64.8164 331.533 64.3359 334.6 63.9082 336.36C63.5352 338.12 62.9219 339 62.0684 339C60.8418 339 59.375 338.573 57.6699 337.72C56.0156 336.813 54.5488 335.747 53.2695 334.52C52.043 333.293 51.4297 332.28 51.4297 331.48C51.375 330.787 51.5625 329.32 51.9883 327.08C52.4688 324.787 53.002 322.2 53.5898 319.32C54.0684 317.027 54.3359 315.72 54.3887 315.4L57.2695 306.52L56.1484 306.12L55.3496 307.72C53.2695 311.987 51.5898 315.32 50.3086 317.72C49.082 320.067 48.0684 321.747 47.2695 322.76C46.7363 323.4 45.7754 323.933 44.3887 324.36C43.002 324.733 41.6426 324.92 40.3086 324.92C39.4434 324.92 38.7539 324.827 38.2422 324.64C37.9336 324.527 37.6895 324.38 37.5098 324.2C37.0293 323.773 36.6016 322.893 36.2285 321.56C36.0488 320.779 35.8262 319.76 35.5605 318.505C35.3555 317.532 35.125 316.417 34.8691 315.16C34.7617 314.573 34.4688 313.16 33.9883 310.92C33.5098 308.627 32.9766 306.547 32.3887 304.68L31.8281 314.76C31.2949 317.907 30.7363 322.04 30.1484 327.16C29.6152 331.533 29.1348 334.6 28.709 336.36C28.3359 338.12 27.7227 339 26.8691 339ZM109.748 327.24C113.002 325.64 115.748 323.933 117.988 322.12C120.334 322.92 122.068 324.04 123.188 325.48C124.361 326.867 124.947 328.467 124.947 330.28C124.947 331.56 124.041 332.893 122.229 334.28C120.414 335.613 118.254 336.733 115.748 337.64C113.24 338.547 111.107 339 109.348 339C108.121 339 106.707 338.547 105.107 337.64C103.561 336.733 102.201 335.667 101.027 334.44C99.9082 333.213 99.3477 332.253 99.3477 331.56C99.3477 331.027 99.5605 330.307 99.9883 329.4C100.469 328.493 100.975 327.56 101.508 326.6C102.041 325.64 102.389 325 102.547 324.68L100.547 323.56C97.7207 328.2 95.002 331.933 92.3887 334.76C89.8281 337.587 87.2949 339 84.7871 339C83.082 339 81.2676 338.253 79.3477 336.76C77.4805 335.267 75.8809 333.453 74.5469 331.32C73.2676 329.187 72.627 327.293 72.627 325.64C72.627 320.893 73.6152 316.04 75.5879 311.08C77.5605 306.12 80.3086 302.013 83.8281 298.76C87.4004 295.507 91.4277 293.88 95.9082 293.88C97.5078 293.88 99.1348 294.6 100.787 296.04C102.441 297.48 103.508 298.947 103.988 300.44C104.254 299.267 104.627 298.253 105.107 297.4C105.641 296.493 106.201 296.04 106.787 296.04C108.174 296.04 109.695 296.547 111.348 297.56C113.055 298.52 114.494 299.667 115.668 301C116.842 302.28 117.428 303.293 117.428 304.04C117.375 305.053 116.947 306.733 116.148 309.08C115.4 311.427 114.174 315 112.469 319.8C111.455 322.413 110.547 324.893 109.748 327.24ZM85.1875 327.88C89.5078 325.213 93.2676 321.933 96.4688 318.04C99.668 314.093 101.854 309.747 103.027 305C101.588 304.36 100.229 304.04 98.9473 304.04C96.4414 304.04 94.2012 305.16 92.2285 307.4C90.2539 309.64 88.6816 312.573 87.5078 316.2C86.334 319.827 85.5605 323.72 85.1875 327.88ZM145.523 311.56C149.416 306.387 152.51 302.52 154.803 299.96C157.098 297.347 159.123 296.04 160.883 296.04C162.109 296.04 163.363 296.627 164.643 297.8C165.977 298.973 167.07 300.387 167.924 302.04C168.777 303.64 169.203 305 169.203 306.12C169.203 309.16 168.004 312.2 165.604 315.24C163.256 318.227 160.27 320.92 156.643 323.32C157.711 324.333 158.617 325.107 159.363 325.64C159.83 325.973 160.316 326.265 160.826 326.515C161.131 326.665 161.443 326.8 161.764 326.92C163.416 326.387 165.496 325.427 168.004 324.04C169.604 325 170.83 326.12 171.684 327.4C172.537 328.68 172.963 329.96 172.963 331.24C172.963 333.48 171.949 335.347 169.924 336.84C167.896 338.28 165.363 339 162.324 339C159.816 339 157.496 338.28 155.363 336.84C153.283 335.347 151.551 333.373 150.164 330.92C148.83 328.413 147.924 325.72 147.443 322.84L148.963 320.36C151.896 319.187 154.109 317.827 155.604 316.28C157.15 314.733 157.924 313.347 157.924 312.12C157.924 311.587 157.764 311.187 157.443 310.92C157.178 310.6 156.803 310.44 156.324 310.44C155.15 310.44 153.711 311.24 152.004 312.84C150.297 314.387 147.924 316.813 144.883 320.12C144.83 320.173 144.217 320.867 143.043 322.2C142.883 326.36 142.484 330.2 141.844 333.72C141.203 337.24 140.324 339 139.203 339C137.869 339 136.324 338.547 134.562 337.64C132.803 336.733 131.283 335.667 130.004 334.44C128.777 333.16 128.164 332.067 128.164 331.16C128.164 330.52 128.377 329.427 128.803 327.88C129.23 326.28 129.736 324.52 130.324 322.6C132.404 315.773 134.029 309.667 135.203 304.28C135.844 301.293 136.404 298.2 136.883 295C137.631 290.733 138.27 287.453 138.803 285.16C139.336 282.867 140.004 280.947 140.803 279.4C141.656 277.8 142.697 277 143.924 277C144.83 277 146.164 277.56 147.924 278.68C149.736 279.747 151.336 281 152.723 282.44C154.109 283.827 154.803 284.973 154.803 285.88C154.803 286.68 154.51 287.587 153.924 288.6C153.391 289.56 152.484 290.947 151.203 292.76C151.074 292.941 150.889 293.209 150.648 293.564C150.391 293.943 150.068 294.422 149.684 295C148.99 296.12 148.484 297.053 148.164 297.8C147.779 298.729 147.365 299.813 146.922 301.051C146.629 301.873 146.322 302.762 146.004 303.72C145.256 306.12 144.617 308.467 144.084 310.76L145.523 311.56ZM194.289 339C191.729 339 189.062 338.173 186.289 336.52C183.516 334.813 181.223 332.733 179.408 330.28C177.596 327.827 176.688 325.507 176.688 323.32C176.688 319.427 177.596 315.16 179.408 310.52C181.275 305.88 183.836 301.96 187.088 298.76C190.342 295.507 194.021 293.88 198.129 293.88C201.062 293.88 203.701 294.52 206.049 295.8C208.449 297.08 210.314 298.68 211.648 300.6C212.982 302.52 213.648 304.387 213.648 306.2C213.648 308.44 212.635 310.653 210.609 312.84C208.582 314.973 205.756 316.867 202.129 318.52C198.502 320.12 194.369 321.267 189.729 321.96C189.676 322.6 189.648 323.56 189.648 324.84C189.648 325.854 189.67 326.707 189.713 327.399C189.738 327.8 189.77 328.147 189.809 328.44C192.475 328.173 195.115 327.453 197.729 326.28C200.342 325.107 203.195 323.453 206.289 321.32C208.369 321.96 209.941 322.973 211.008 324.36C212.074 325.747 212.609 327.4 212.609 329.32C212.609 330.92 211.621 332.493 209.648 334.04C207.729 335.533 205.328 336.733 202.449 337.64C199.568 338.547 196.848 339 194.289 339ZM190.928 315.96C194.182 314.787 196.902 313.293 199.088 311.48C201.275 309.667 202.369 308.12 202.369 306.84C202.369 305.347 201.328 304.333 199.248 303.8C197.223 305.293 195.488 307.08 194.049 309.16C192.662 311.24 191.621 313.507 190.928 315.96ZM29.2715 430.28C27.7246 431.507 25.7246 432.653 23.2715 433.72C20.8184 434.733 18.8984 435.24 17.5117 435.24C15.8574 435.24 13.9375 434.307 11.752 432.44C9.61719 430.52 7.80469 428.253 6.31055 425.64C4.87109 422.973 4.20508 420.627 4.31055 418.6C4.68555 412.893 5.99219 406.893 8.23047 400.6C10.4707 394.307 13.5645 389 17.5117 384.68C21.457 380.36 25.9922 378.2 31.1113 378.2C33.832 378.2 36.2578 378.92 38.3906 380.36C40.5781 381.747 42.2578 383.587 43.4316 385.88C44.6582 388.12 45.2715 390.467 45.2715 392.92C45.2715 394.733 44.6309 396.173 43.3516 397.24C42.0703 398.307 40.4453 398.84 38.4707 398.84C36.8184 398.84 35.0312 398.44 33.1113 397.64C33.2188 396.36 33.2715 395.507 33.2715 395.08C33.2715 393.053 32.9785 391.533 32.3906 390.52C31.8574 389.507 31.084 389 30.0703 389C28.3652 389 26.418 390.867 24.2305 394.6C22.0449 398.28 20.125 402.867 18.4707 408.36C16.8711 413.853 15.9648 419.107 15.752 424.12C20.9785 424.067 26.8711 422.787 33.4316 420.28L33.752 416.6C32.6855 416.707 31.8047 416.76 31.1113 416.76C29.9805 416.76 28.9512 416.685 28.0215 416.536C27.5898 416.467 27.1797 416.381 26.791 416.28C25.5645 415.96 24.8438 415.48 24.6309 414.84C24.418 414.36 24.3105 413.64 24.3105 412.68C24.3105 411.4 24.4707 410.067 24.791 408.68C25.1641 407.293 25.5645 406.36 25.9922 405.88C26.7383 405.027 27.6445 404.467 28.7109 404.2C29.2559 404.07 29.9199 403.972 30.7051 403.906C31.5332 403.835 32.4941 403.8 33.5918 403.8C37.6445 403.8 40.4707 404.707 42.0703 406.52C43.7246 408.28 44.5508 410.893 44.5508 414.36C44.5508 416.973 44.0703 420.52 43.1113 425C42.1504 429.427 40.9785 433.32 39.5918 436.68C38.2051 440.04 36.8711 441.72 35.5918 441.72C34.5254 441.72 33.3242 441.48 31.9922 441C30.7109 440.52 29.6172 439.907 28.7109 439.16C27.8047 438.467 27.3516 437.827 27.3516 437.24C27.4043 436.387 27.6973 435.373 28.2305 434.2C28.5859 433.489 28.9512 432.826 29.3262 432.213C29.5703 431.815 29.8184 431.437 30.0703 431.08L29.2715 430.28ZM62.1152 435C60.6758 435 59.1016 434.547 57.3945 433.64C55.6875 432.68 54.2207 431.587 52.9941 430.36C51.7676 429.08 51.1543 428.013 51.1543 427.16C51.1543 426.147 51.3691 424.84 51.7949 423.24C52.2207 421.587 52.8613 419.453 53.7148 416.84C54.5684 414.12 55.209 411.96 55.6348 410.36C56.0625 408.707 56.2754 407.373 56.2754 406.36C56.2754 405.933 56.0352 405.48 55.5547 405C55.0742 404.52 54.3281 403.88 53.3145 403.08C52.7051 402.581 52.1816 402.14 51.7461 401.756C51.3418 401.402 51.0117 401.096 50.7559 400.84C50.2207 400.307 49.9551 399.773 49.9551 399.24C49.9551 398.12 50.4883 396.813 51.5547 395.32C52.6211 393.827 53.875 392.547 55.3145 391.48C56.7559 390.413 57.9824 389.88 58.9941 389.88C60.1152 389.88 61.3945 390.387 62.8359 391.4C64.2754 392.413 65.5293 393.587 66.5957 394.92C67.6621 396.2 68.1953 397.187 68.1953 397.88C68.1953 399.907 67.7949 402.573 66.9941 405.88L67.9551 406.36C69.1816 404.387 70.5156 402.04 71.9551 399.32C73.4492 396.547 74.3555 394.84 74.6758 394.2L76.1953 391.32C79.875 391.213 82.6211 391.88 84.4355 393.32C86.248 394.76 87.1543 396.68 87.1543 399.08C87.1543 401.427 86.3809 403.773 84.8359 406.12C80.9941 407.4 77.7148 408.68 74.9941 409.96C72.3281 411.187 69.6348 412.653 66.9141 414.36C66.7559 420.28 66.2754 425.213 65.4746 429.16C64.7285 433.053 63.6074 435 62.1152 435ZM106.053 389.8C109.838 390.227 113.279 391.373 116.371 393.24C119.518 395.053 121.973 397.24 123.732 399.8C125.492 402.36 126.371 404.92 126.371 407.48C126.371 411.32 125.385 415.4 123.412 419.72C121.439 424.04 118.691 427.667 115.172 430.6C111.652 433.533 107.732 435 103.412 435C101.279 435 99.0117 434.227 96.6113 432.68C94.2109 431.08 92.1855 429.16 90.5312 426.92C88.9316 424.627 88.1328 422.6 88.1328 420.84C88.1328 417.587 88.5312 414.253 89.332 410.84C90.1328 407.373 91.3594 404.013 93.0117 400.76C94.5586 399.907 96.1055 399.48 97.6523 399.48C98.3457 399.48 98.9844 399.56 99.5723 399.72C99.3594 399.08 99.252 398.333 99.252 397.48C99.252 395.773 99.8379 394.227 101.012 392.84C102.238 391.453 103.918 390.44 106.053 389.8ZM100.531 425.88C104.959 424.387 108.398 421.827 110.852 418.2C113.305 414.573 114.932 410.253 115.732 405.24C113.332 403.533 110.078 402.68 105.973 402.68C104.959 402.68 104.186 402.707 103.652 402.76C104.238 403.827 104.531 405.027 104.531 406.36C103.145 408.547 102.078 410.973 101.332 413.64C100.586 416.253 100.211 418.893 100.211 421.56C100.211 423.16 100.318 424.6 100.531 425.88ZM140.752 435C139.365 435 137.844 434.493 136.191 433.48C134.592 432.413 133.23 431.213 132.111 429.88C130.992 428.493 130.432 427.373 130.432 426.52C130.432 425.667 130.672 424.44 131.15 422.84L132.752 418.04L133.615 415.686L133.871 415C134.564 413.133 135.178 411.373 135.711 409.72C136.113 408.586 136.379 407.703 136.504 407.071C136.562 406.781 136.592 406.544 136.592 406.36C136.592 405.933 136.324 405.48 135.791 405C135.311 404.467 134.564 403.827 133.551 403.08C132.377 402.173 131.498 401.453 130.912 400.92C130.377 400.387 130.111 399.827 130.111 399.24C130.111 398.12 130.617 396.813 131.631 395.32C132.697 393.827 133.924 392.547 135.311 391.48C136.752 390.413 137.979 389.88 138.992 389.88C140.111 389.88 141.391 390.387 142.832 391.4C144.324 392.413 145.605 393.587 146.672 394.92C147.791 396.2 148.352 397.187 148.352 397.88C148.352 401.187 147.791 405.16 146.672 409.8C145.551 414.44 144.111 419.053 142.352 423.64C145.871 420.707 149.018 417.453 151.791 413.88C154.564 410.307 156.512 407.107 157.631 404.28C157.738 400.813 158.139 397.907 158.832 395.56C159.578 393.213 160.432 392.04 161.391 392.04C162.777 392.04 164.299 392.547 165.951 393.56C167.658 394.52 169.098 395.667 170.271 397C171.445 398.28 172.031 399.293 172.031 400.04C171.979 401.16 171.471 403.267 170.512 406.36C169.551 409.4 168.219 413.32 166.512 418.12C165.902 419.916 165.447 421.249 165.146 422.119C164.947 422.696 164.816 423.07 164.752 423.24C166.299 422.547 167.686 421.827 168.912 421.08C170.191 420.28 171.525 419.293 172.912 418.12C175.258 418.92 176.992 420.04 178.111 421.48C179.285 422.867 179.871 424.467 179.871 426.28C179.871 427.56 178.965 428.893 177.15 430.28C175.338 431.613 173.178 432.733 170.672 433.64C168.164 434.547 166.031 435 164.271 435C163.15 435 161.818 434.547 160.271 433.64C158.725 432.68 157.338 431.613 156.111 430.44C154.938 429.213 154.352 428.307 154.352 427.72C154.352 427.406 154.404 427.055 154.512 426.665C154.605 426.325 154.738 425.957 154.912 425.56L156.271 422.84C156.805 421.827 157.205 421.107 157.471 420.68L155.471 419.56C152.537 424.947 150.004 428.867 147.871 431.32C145.791 433.773 143.418 435 140.752 435ZM212.246 391.24C215.072 391.24 217.58 391.907 219.766 393.24C221.953 394.573 223.633 396.413 224.807 398.76C226.033 401.053 226.646 403.64 226.646 406.52C226.646 410.787 225.42 415.16 222.967 419.64C220.566 424.067 217.393 427.747 213.445 430.68C209.553 433.56 205.5 435 201.287 435C199.473 435 197.66 434.28 195.846 432.84C195.449 434.499 195.102 436.179 194.807 437.88C194.627 438.912 194.467 439.952 194.326 441L193.766 445.96C193.34 449.587 192.912 452.2 192.486 453.8C192.113 455.4 191.5 456.2 190.646 456.2C189.26 456.2 187.713 455.747 186.006 454.84C184.354 453.933 182.939 452.84 181.766 451.56C180.539 450.333 179.926 449.267 179.926 448.36C179.926 447.347 180.379 445.107 181.287 441.64C182.193 438.173 183.58 433.16 185.445 426.6C187.1 420.733 188.379 416.12 189.287 412.76C190.193 409.4 190.646 407.267 190.646 406.36C190.646 405.933 190.406 405.507 189.926 405.08C189.5 404.6 188.779 403.933 187.766 403.08C186.646 402.173 185.82 401.453 185.287 400.92C184.979 400.612 184.758 400.295 184.629 399.968C184.533 399.73 184.486 399.488 184.486 399.24C184.486 398.12 184.992 396.813 186.006 395.32C187.072 393.827 188.299 392.547 189.686 391.48C191.127 390.413 192.354 389.88 193.367 389.88C194.912 389.88 196.674 390.733 198.646 392.44C200.619 394.147 202.033 395.853 202.887 397.56L206.006 392.28C208.086 391.587 210.166 391.24 212.246 391.24ZM201.287 424.76C202.992 424.76 204.859 423.88 206.887 422.12C208.912 420.307 210.619 418.093 212.006 415.48C213.393 412.813 214.086 410.28 214.086 407.88C214.086 406.12 213.66 404.76 212.807 403.8C211.953 402.84 210.727 402.36 209.127 402.36C207.26 402.36 205.553 403.427 204.006 405.56C202.514 407.64 201.312 410.2 200.406 413.24C199.553 416.28 199.127 419.08 199.127 421.64C199.127 422.653 199.312 423.427 199.686 423.96C200.113 424.493 200.646 424.76 201.287 424.76Z" fill="#4E6B42"/>
</svg>
