<svg width="1728" height="1117" viewBox="0 0 1728 1117" fill="none" xmlns="http://www.w3.org/2000/svg">
<g clip-path="url(#clip0_78_2)">
<rect width="1728" height="1117" fill="#A6C48A"/>
<path d="M120.8 103.989C119.952 114.812 121.883 125.687 126.638 135.447C131.55 145.528 137.386 157 138.507 157C140.16 157 120.624 156.353 113.803 156.128C112.26 156.078 110.733 155.992 109.194 155.87L85.5515 154L75.2931 152.249C68.4993 151.089 61.9025 148.978 55.697 145.979L53.621 144.976C48.6983 142.597 44.1408 139.527 40.0867 135.859L39.6229 135.439C34.9159 131.18 30.9986 126.122 28.0516 120.5L26.2858 116.853C23.5845 111.273 23.6374 104.753 26.4287 99.2181C27.5019 97.09 28.9486 95.172 30.7 93.5554L34.5516 90L39.5 86C42.1376 83.6921 45.2271 81.9582 48.5758 80.9239C50.483 80.3348 52.6387 79.6728 54.5 79.1108C59.1008 77.7217 56.8681 71.5536 59.5 67.5C59.8723 66.9266 60.3116 66.2519 60.7774 65.5377C63.5582 61.2733 67.5578 57.9448 72.2498 55.9692C73.7806 55.3246 75.3706 54.8305 76.9971 54.494L82.9119 53.2703C86.9377 52.4373 91.1098 52.65 95.0301 53.888C97.364 54.625 99.5718 55.7139 101.577 57.117L102.798 57.971C105.617 59.9436 108.118 62.3356 110.214 65.064L110.988 66.0703C112.993 68.681 114.686 71.5185 116.029 74.5244L116.555 75.7005C120.162 83.7715 121.69 92.6175 121 101.431L120.8 103.989Z" fill="#4E6B42"/>
<path d="M271 -14L267.5 -6L263.5 1.5L258.5 9L252.5 15L237.5 26L228.5 30.5L220 34L196.5 43.5L180 52.5L184 37.5L186.5 22.5L185 -9L186.5 -23.5L191.5 -37L197.5 -48L206.5 -58L211.5 -62L218 -65.5L225 -68.5L233.5 -69L242 -68.5L250 -67L257.5 -64L265 -60L272 -49.5L274 -41V-32.5L273 -23L271 -14Z" fill="#4E6B42"/>
<path d="M75.5 467.005C50.3027 472.604 54 513.502 7 540.498C-20.6142 540.498 -36 532.113 -36 504.498C-36 476.884 -8.11424 458 19.5 458C47.1142 458 93.5 463.005 75.5 467.005Z" fill="#4E6B42"/>
<path d="M192.5 1011C167.303 1016.6 171 1057.5 124 1084.5C96.3858 1084.5 81 1076.11 81 1048.5C81 1020.88 108.886 1002 136.5 1002C164.114 1002 210.5 1007 192.5 1011Z" fill="#4E6B42"/>
<path d="M192.5 1011C167.303 1016.6 171 1057.5 124 1084.5C96.3858 1084.5 81 1076.11 81 1048.5C81 1020.88 108.886 1002 136.5 1002C164.114 1002 210.5 1007 192.5 1011Z" fill="#4E6B42"/>
<path d="M-16.9609 906.005C8.2364 911.604 4.53906 952.502 51.5391 979.498C79.1533 979.498 94.5391 971.113 94.5391 943.498C94.5391 915.884 66.6533 897 39.0391 897C11.4248 897 -34.9609 902.005 -16.9609 906.005Z" fill="#4E6B42"/>
<path d="M211.995 1133.5C206.396 1108.3 165.498 1112 138.502 1065C138.502 1037.39 146.887 1022 174.502 1022C202.116 1022 221 1049.89 221 1077.5C221 1105.11 215.995 1151.5 211.995 1133.5Z" fill="#4E6B42"/>
<path d="M27.0391 988.005C52.2364 993.604 48.5391 1034.5 95.5391 1061.5C123.153 1061.5 138.539 1053.11 138.539 1025.5C138.539 997.884 110.653 979 83.0391 979C55.4248 979 9.03906 984.005 27.0391 988.005Z" fill="#4E6B42"/>
<path d="M291.5 1002C266.303 1007.6 270 1048.5 223 1075.5C195.386 1075.5 180 1067.11 180 1039.5C180 1011.88 207.886 993 235.5 993C263.114 993 309.5 998.005 291.5 1002Z" fill="#6D925E"/>
<path d="M126.039 943.005C151.236 948.604 147.539 989.502 194.539 1016.5C222.153 1016.5 237.539 1008.11 237.539 980.498C237.539 952.884 209.653 934 182.039 934C154.425 934 108.039 939.005 126.039 943.005Z" fill="#4E6B42"/>
<path d="M76.5 929.005C51.3027 934.604 55 975.502 8 1002.5C-19.6142 1002.5 -35 994.113 -35 966.498C-35 938.884 -7.11424 920 20.5 920C48.1142 920 94.5 925.005 76.5 929.005Z" fill="#6D925E"/>
<path d="M175.5 927.005C150.303 932.604 154 973.502 107 1000.5C79.3858 1000.5 64 992.113 64 964.498C64 936.884 91.8858 918 119.5 918C147.114 918 193.5 923.005 175.5 927.005Z" fill="#4E6B42"/>
<path d="M349.5 1037C324.303 1042.6 328 1083.5 281 1110.5C253.386 1110.5 238 1102.11 238 1074.5C238 1046.88 265.886 1028 293.5 1028C321.114 1028 367.5 1033 349.5 1037Z" fill="#4E6B42"/>
<path d="M-31.9609 1011C-6.7636 1016.6 -10.4609 1057.5 36.5391 1084.5C64.1533 1084.5 79.5391 1076.11 79.5391 1048.5C79.5391 1020.88 51.6533 1002 24.0391 1002C-3.57517 1002 -49.9609 1007 -31.9609 1011Z" fill="#6D925E"/>
<path d="M148.5 1112.49C123.303 1106.89 127 1066 80 1039C52.3858 1039 37 1047.39 37 1075C37 1102.61 64.8858 1121.5 92.5 1121.5C120.114 1121.5 166.5 1116.49 148.5 1112.49Z" fill="#4E6B42"/>
<path d="M90.5 1048C65.3027 1053.6 69 1094.5 22 1121.5C-5.61424 1121.5 -21 1113.11 -21 1085.5C-21 1057.88 6.88576 1039 34.5 1039C62.1142 1039 108.5 1044 90.5 1048Z" fill="#4E6B42"/>
<path d="M167.039 1077C192.236 1082.6 188.539 1123.5 235.539 1150.5C263.153 1150.5 278.539 1142.11 278.539 1114.5C278.539 1086.88 250.653 1068 223.039 1068C195.425 1068 149.039 1073 167.039 1077Z" fill="#4E6B42"/>
<path d="M94.0391 1070C119.236 1075.6 115.539 1116.5 162.539 1143.5C190.153 1143.5 205.539 1135.11 205.539 1107.5C205.539 1079.88 177.653 1061 150.039 1061C122.425 1061 76.0391 1066 94.0391 1070Z" fill="#6D925E"/>
<path d="M1662.73 908.5C1669.3 944.373 1638.09 972.297 1587.73 971.5C1539.63 975.107 1504.18 954.752 1512.73 921.5C1516.85 901.893 1540.32 880.251 1578.23 873.5C1619.1 873.5 1652.73 879 1662.73 908.5Z" fill="#EFF1F7"/>
<path d="M1630.73 883C1630.73 903.435 1608.78 919.975 1579.23 919.975C1549.68 919.975 1525.73 903.409 1525.73 882.975C1525.73 862.54 1547.68 846 1577.23 846C1606.78 846 1630.73 862.565 1630.73 883Z" fill="#EFF1F7"/>
<path d="M1644.66 897.172C1654.16 904.672 1652.25 914.638 1652.04 916.579C1648.45 920.654 1638.66 918.361 1630.16 910.882C1625.08 904.166 1621.37 894.474 1624.66 892.172C1627.95 889.87 1635.16 889.672 1644.66 897.172Z" fill="#393939"/>
<circle cx="1560.23" cy="882.5" r="4.5" fill="#393939"/>
<path d="M1549.23 899C1549.23 916.121 1542.29 930 1533.73 930C1508.12 930.591 1513.23 925.51 1521.73 903.498C1530.23 881.486 1519.63 869.327 1537.23 872.498C1545.79 872.498 1549.23 881.879 1549.23 899Z" fill="#EFF1F7"/>
<path d="M1546.6 909.016C1541.59 934.503 1544.96 951.613 1536.73 949.994C1526.6 952.265 1504.06 949.233 1513.35 914.994C1518.37 889.507 1531 858.319 1539.23 859.937C1547.46 861.556 1551.62 883.529 1546.6 909.016Z" fill="#EFF1F7"/>
<path d="M1697.23 895.942C1694.38 901.913 1677.17 909.794 1669.23 912.942C1658.46 912.942 1655.73 911.003 1655.73 902.443C1657.28 895.56 1659.07 895.627 1669.23 892.944C1686.43 889.509 1701.39 887.552 1697.23 895.942Z" fill="#393939"/>
<circle cx="1528.23" cy="889.5" r="11.5" fill="#FFB2B2"/>
<circle cx="1596.23" cy="889.5" r="11.5" fill="#FFB2B2"/>
<circle cx="1585.23" cy="879.5" r="4.5" fill="#393939"/>
<circle cx="1537.23" cy="879.5" r="4.5" fill="#393939"/>
<path d="M1668.73 785.5C1675.3 821.373 1644.09 849.297 1593.73 848.5C1545.63 852.107 1510.18 831.752 1518.73 798.5C1522.85 778.893 1546.32 757.251 1584.23 750.5C1625.1 750.5 1658.73 756 1668.73 785.5Z" fill="#EFF1F7"/>
<path d="M1636.73 760C1636.73 780.435 1614.78 796.975 1585.23 796.975C1555.68 796.975 1531.73 780.409 1531.73 759.975C1531.73 739.54 1553.68 723 1583.23 723C1612.78 723 1636.73 739.565 1636.73 760Z" fill="#EFF1F7"/>
<path d="M1650.66 774.172C1660.16 781.672 1658.25 791.638 1658.04 793.579C1654.45 797.654 1644.66 795.361 1636.16 787.882C1631.08 781.166 1627.37 771.474 1630.66 769.172C1633.95 766.87 1641.16 766.672 1650.66 774.172Z" fill="#393939"/>
<circle cx="1566.23" cy="759.5" r="4.5" fill="#393939"/>
<path d="M1555.23 776C1555.23 793.121 1548.29 807 1539.73 807C1514.12 807.591 1519.23 802.51 1527.73 780.498C1536.23 758.486 1525.63 746.327 1543.23 749.498C1551.79 749.498 1555.23 758.879 1555.23 776Z" fill="#EFF1F7"/>
<path d="M1552.6 786.016C1547.59 811.503 1550.96 828.613 1542.73 826.994C1532.6 829.265 1510.06 826.233 1519.35 791.994C1524.37 766.507 1537 735.319 1545.23 736.937C1553.46 738.556 1557.62 760.529 1552.6 786.016Z" fill="#EFF1F7"/>
<path d="M1703.23 772.942C1700.38 778.913 1683.17 786.794 1675.23 789.942C1664.46 789.942 1661.73 788.003 1661.73 779.443C1663.28 772.56 1665.07 772.627 1675.23 769.944C1692.43 766.509 1707.39 764.552 1703.23 772.942Z" fill="#393939"/>
<circle cx="1534.23" cy="766.5" r="11.5" fill="#FFB2B2"/>
<circle cx="1602.23" cy="766.5" r="11.5" fill="#FFB2B2"/>
<circle cx="1591.23" cy="756.5" r="4.5" fill="#393939"/>
<circle cx="1543.23" cy="756.5" r="4.5" fill="#393939"/>
<path d="M1656.73 1023.5C1663.3 1059.37 1632.09 1087.3 1581.73 1086.5C1533.63 1090.11 1498.18 1069.75 1506.73 1036.5C1510.85 1016.89 1534.32 995.251 1572.23 988.5C1613.1 988.5 1646.73 994 1656.73 1023.5Z" fill="#EFF1F7"/>
<path d="M1624.73 998C1624.73 1018.43 1602.78 1034.97 1573.23 1034.97C1543.68 1034.97 1519.73 1018.41 1519.73 997.975C1519.73 977.54 1541.68 961 1571.23 961C1600.78 961 1624.73 977.565 1624.73 998Z" fill="#EFF1F7"/>
<path d="M1638.66 1012.17C1648.16 1019.67 1646.25 1029.64 1646.04 1031.58C1642.45 1035.65 1632.66 1033.36 1624.16 1025.88C1619.08 1019.17 1615.37 1009.47 1618.66 1007.17C1621.95 1004.87 1629.16 1004.67 1638.66 1012.17Z" fill="#393939"/>
<circle cx="1554.23" cy="997.5" r="4.5" fill="#393939"/>
<path d="M1543.23 1014C1543.23 1031.12 1536.29 1045 1527.73 1045C1502.12 1045.59 1507.23 1040.51 1515.73 1018.5C1524.23 996.486 1513.63 984.327 1531.23 987.498C1539.79 987.498 1543.23 996.879 1543.23 1014Z" fill="#EFF1F7"/>
<path d="M1540.6 1024.02C1535.59 1049.5 1538.96 1066.61 1530.73 1064.99C1520.6 1067.27 1498.06 1064.23 1507.35 1029.99C1512.37 1004.51 1525 973.319 1533.23 974.937C1541.46 976.556 1545.62 998.529 1540.6 1024.02Z" fill="#EFF1F7"/>
<path d="M1691.23 1010.94C1688.38 1016.91 1671.17 1024.79 1663.23 1027.94C1652.46 1027.94 1649.73 1026 1649.73 1017.44C1651.28 1010.56 1653.07 1010.63 1663.23 1007.94C1680.43 1004.51 1695.39 1002.55 1691.23 1010.94Z" fill="#393939"/>
<circle cx="1522.23" cy="1004.5" r="11.5" fill="#FFB2B2"/>
<circle cx="1590.23" cy="1004.5" r="11.5" fill="#FFB2B2"/>
<circle cx="1579.23" cy="994.5" r="4.5" fill="#393939"/>
<circle cx="1531.23" cy="994.5" r="4.5" fill="#393939"/>
</g>
<defs>
<clipPath id="clip0_78_2">
<rect width="1728" height="1117" fill="white"/>
</clipPath>
</defs>
</svg>
