<svg width="164" height="173" viewBox="0 0 164 173" fill="none" xmlns="http://www.w3.org/2000/svg">
<path d="M92.4194 140.562C95.172 143.89 93.44 152.858 87.4613 157.668C81.4825 162.478 76.4198 165.446 63.8011 164.113C58.8437 164.115 54.2175 156.704 60.1963 151.894C66.1751 147.084 89.6668 137.234 92.4194 140.562Z" fill="#DDA624"/>
<path d="M52.3096 133.451C55.0622 136.778 53.3303 145.747 47.3515 150.557C41.3728 155.367 36.3101 158.335 23.6913 157.001C18.734 157.004 14.1078 149.592 20.0866 144.782C26.0653 139.972 49.557 130.123 52.3096 133.451Z" fill="#DDA624"/>
<path d="M155.337 92.2275C158.543 91.4153 161.296 94.6283 159.968 97.6578C156.111 106.459 152.852 112.99 146.898 122.535C144.241 126.066 139.228 132.516 134.586 136.594C132.932 138.047 130.477 137.494 129.308 135.629L109.374 103.854C108.618 102.648 108.559 101.132 109.22 99.8711L112.65 93.3279C113.672 91.3768 112.9 89.0496 114.885 90.0049C118.077 91.5409 124.71 94.4639 131.422 96.0772C136.388 96.6586 139.459 96.5503 145.451 94.7319L155.337 92.2275Z" fill="#E3DCE0"/>
<path d="M69.7378 23.5528C79.76 33.2715 67.1989 41.2434 56.8937 51.5788C46.5886 61.9141 25.9027 70.7024 15.8806 60.9838C5.85849 51.2651 11.6617 33.8882 21.9668 23.5528C32.272 13.2175 59.7157 13.8342 69.7378 23.5528Z" fill="#E3DCE0"/>
<path d="M76.2648 67.5987C70.0633 88.1432 45.2908 129.586 37.7403 127.369C30.1898 125.152 18.2441 117.901 24.4455 97.3561C46.303 79.8006 59.4833 19.8187 67.0339 22.0353C74.5844 24.252 82.4662 47.0543 76.2648 67.5987Z" fill="#E3DCE0"/>
<ellipse cx="77.1531" cy="118.5" rx="68" ry="33.5" fill="#E3DCE0"/>
<path d="M19.3304 82.0722C18.7409 82.814 17.5466 82.4099 17.5429 81.4675L17.4655 61.8272C17.4628 61.1535 18.1186 60.6666 18.7654 60.8621L31.4134 64.6837C32.0868 64.8872 32.3397 65.7015 31.9011 66.2535L19.3304 82.0722Z" fill="#DDA624"/>
<ellipse cx="7.91462" cy="3.783" rx="7.91462" ry="3.783" transform="matrix(0.951002 0.309184 -0.31704 0.948412 18.7321 56.6895)" fill="#DDA624"/>
<path d="M145.153 117.174C145.153 118.461 144.287 120.506 140.778 123.191C137.392 125.782 132.412 128.276 126.402 130.555C114.576 135.041 99.9088 138.274 88.8041 139.998C78.1013 139.902 68.3424 135.643 61.2393 129.752C53.8829 123.65 50.1531 116.502 50.1531 111.304C50.1531 106.497 53.4417 101.281 60.6119 96.9965C67.6792 92.7737 77.7665 90 89.1765 90C100.339 90 114.801 94.1184 126.51 100.093C132.337 103.066 137.219 106.368 140.566 109.609C144.058 112.992 145.153 115.589 145.153 117.174Z" fill="#D7C6CF" stroke="#AF99A5" stroke-width="10"/>
<path d="M48.1531 44.108C48.1531 48.6329 44.0521 52.3011 38.9932 52.3011C33.9344 52.3011 35.3293 56.396 35.3293 51.871C35.3293 47.3461 36.5061 50.3795 41.565 50.3795C46.6238 50.3795 48.1531 39.5831 48.1531 44.108Z" fill="#393939"/>
</svg>
