<svg width="1728" height="401" viewBox="0 0 1728 401" fill="none" xmlns="http://www.w3.org/2000/svg">
<rect y="151" width="1728" height="194" fill="white"/>
<path d="M307.68 296C304.88 296 301.707 295.393 298.16 294.18C294.707 292.873 291.627 291.38 288.92 289.7C286.307 287.927 284.813 286.387 284.44 285.08C284.16 284.147 283.833 281.58 283.46 277.38C283.18 273.087 282.993 270.193 282.9 268.7L282.34 260.58C277.207 270.66 272.353 279.107 267.78 285.92C263.3 292.64 259.753 296 257.14 296C254.993 296 252.427 295.253 249.44 293.76C246.547 292.173 243.98 290.307 241.74 288.16C239.593 286.013 238.52 284.24 238.52 282.84C238.52 281.16 239.593 275.047 241.74 264.5C244.073 252.553 245.613 244.34 246.36 239.86L247.48 233.28C249.253 222.827 250.887 214.333 252.38 207.8C253.967 201.267 255.553 198 257.14 198C258.913 198 261.293 198.793 264.28 200.38C267.36 201.967 270.02 203.833 272.26 205.98C274.593 208.127 275.76 209.993 275.76 211.58C275.76 213.633 275.153 216.807 273.94 221.1C272.727 225.3 270.907 231.18 268.48 238.74C264.653 250.127 261.9 259.133 260.22 265.76L262.46 266.6L268.06 258.06C272.447 251.34 275.853 246.44 278.28 243.36C280.8 240.28 283.087 238.74 285.14 238.74C293.727 238.74 299.373 250.78 302.08 274.86C307.027 269.447 310.573 262.353 312.72 253.58C314.867 244.807 315.94 235.473 315.94 225.58C312.58 223.9 309.407 222.733 306.42 222.08C303.433 221.333 300.167 221.007 296.62 221.1C294.38 217.273 293.26 213.633 293.26 210.18C293.26 207.287 294.147 204.767 295.92 202.62C297.693 200.473 300.4 198.933 304.04 198C313.933 199.587 321.633 203.133 327.14 208.64C332.647 214.053 335.4 220.773 335.4 228.8C335.4 235.147 334.14 243.78 331.62 254.7C329.1 265.62 325.693 275.233 321.4 283.54C317.2 291.847 312.627 296 307.68 296ZM406.668 198C408.441 199.027 409.748 200.473 410.588 202.34C411.521 204.113 411.988 206.073 411.988 208.22C411.988 210.087 411.614 211.953 410.868 213.82C410.121 215.687 409.141 217.227 407.928 218.44C395.888 218.627 385.854 219.093 377.828 219.84C376.241 225.533 374.748 231.88 373.348 238.88C382.681 238.133 390.568 237.013 397.008 235.52C398.874 236.64 400.274 238.133 401.208 240C402.234 241.773 402.748 243.733 402.748 245.88C402.748 247.84 402.328 249.707 401.488 251.48C400.741 253.16 399.668 254.513 398.268 255.54C396.494 255.727 394.768 255.867 393.088 255.96C391.408 256.053 389.774 256.147 388.188 256.24L370.128 257.5L367.608 270.1L366.208 276.82C371.901 276.26 377.034 275.513 381.608 274.58C386.274 273.553 391.174 272.153 396.308 270.38C398.921 271.593 400.928 273.32 402.328 275.56C403.821 277.707 404.568 280.087 404.568 282.7C404.568 286.433 403.121 289.747 400.228 292.64C394.441 293.76 387.954 294.6 380.768 295.16C373.581 295.72 366.908 296 360.748 296C359.068 296 356.874 295.16 354.168 293.48C351.461 291.8 349.034 289.84 346.888 287.6C344.834 285.36 343.808 283.447 343.808 281.86C343.808 280.46 344.881 275.047 347.028 265.62C348.614 258.713 350.154 251.527 351.648 244.06C352.674 238.927 353.188 236.36 353.188 236.36C354.681 229.08 355.661 223.807 356.128 220.54L350.248 220.96C348.474 220.027 347.028 218.673 345.908 216.9C344.881 215.033 344.368 213.027 344.368 210.88C344.368 207.147 345.814 203.833 348.708 200.94C361.494 200.753 372.601 200.473 382.028 200.1C391.548 199.727 399.761 199.027 406.668 198ZM468.93 269.82C471.544 271.033 473.55 272.76 474.95 275C476.444 277.24 477.19 279.667 477.19 282.28C477.19 286.107 475.744 289.467 472.85 292.36C467.064 293.573 460.857 294.507 454.23 295.16C447.604 295.813 441.63 296.14 436.31 296.14C434.07 296.14 432.437 296.093 431.41 296C429.73 295.907 427.537 295.02 424.83 293.34C422.217 291.66 419.884 289.747 417.83 287.6C415.777 285.36 414.75 283.447 414.75 281.86C414.75 280.18 415.777 274.907 417.83 266.04C419.79 257.733 421.61 249.007 423.29 239.86L424.41 233.7C426.277 223.153 428.004 214.567 429.59 207.94C431.27 201.313 432.95 198 434.63 198C436.404 198 438.784 198.793 441.77 200.38C444.757 201.967 447.37 203.833 449.61 205.98C451.944 208.127 453.11 209.993 453.11 211.58C453.11 212.513 452.597 214.8 451.57 218.44C450.637 221.987 450.077 224.18 449.89 225.02C446.81 235.94 444.384 245.46 442.61 253.58C441.397 259.367 439.577 267.113 437.15 276.82C448.07 275.7 458.664 273.367 468.93 269.82ZM548.35 282.42C546.39 284.38 543.263 286.48 538.97 288.72C534.77 290.96 530.15 292.873 525.11 294.46C520.163 295.953 515.543 296.7 511.25 296.7C507.983 296.7 504.11 295.207 499.63 292.22C495.15 289.14 491.277 285.5 488.01 281.3C484.837 277.1 483.25 273.367 483.25 270.1C483.343 260.113 485.023 249.38 488.29 237.9C491.65 226.42 496.643 216.667 503.27 208.64C509.99 200.613 518.063 196.6 527.49 196.6C532.437 196.6 537.01 198 541.21 200.8C545.503 203.6 548.863 207.053 551.29 211.16C553.717 215.267 554.93 219.14 554.93 222.78C555.023 226.607 553.717 229.547 551.01 231.6C548.303 233.56 544.897 234.54 540.79 234.54C537.803 234.54 534.817 233.98 531.83 232.86C531.923 231.18 531.97 228.8 531.97 225.72C531.97 222.267 531.69 219.7 531.13 218.02C530.57 216.34 529.497 215.5 527.91 215.5C524.737 215.5 521.47 218.767 518.11 225.3C514.843 231.833 512.043 239.86 509.71 249.38C507.47 258.9 506.257 267.627 506.07 275.56C512.23 274.44 517.877 272.62 523.01 270.1C528.237 267.487 532.81 264.5 536.73 261.14C540.93 262.167 544.15 264.08 546.39 266.88C548.723 269.587 549.89 272.62 549.89 275.98C549.89 278.033 549.377 280.18 548.35 282.42ZM596.492 196.6C603.306 196.6 609.746 198.233 615.812 201.5C621.972 204.767 626.872 209.107 630.512 214.52C634.246 219.84 636.112 225.393 636.112 231.18C636.112 240.233 633.686 249.94 628.832 260.3C623.979 270.567 617.819 279.2 610.352 286.2C602.979 293.2 595.699 296.7 588.512 296.7C584.779 296.7 580.579 295.16 575.912 292.08C571.339 288.907 567.419 285.173 564.152 280.88C560.886 276.493 559.252 272.62 559.252 269.26C559.252 263.94 560.839 254.793 564.012 241.82C567.186 228.753 570.126 219.14 572.832 212.98C575.912 212.047 578.806 211.58 581.512 211.58C583.379 211.58 584.872 211.767 585.992 212.14C585.806 208.687 586.646 205.513 588.512 202.62C590.379 199.727 593.039 197.72 596.492 196.6ZM582.072 277.52C591.032 274.253 598.546 268 604.612 258.76C610.679 249.427 614.972 239.207 617.492 228.1C614.879 226.233 611.472 224.693 607.272 223.48C603.166 222.267 598.732 221.613 593.972 221.52C594.159 222.453 594.346 223.853 594.532 225.72C585.946 241.773 581.792 259.04 582.072 277.52ZM658.273 296C656.126 296 653.559 295.253 650.573 293.76C647.679 292.173 645.113 290.307 642.873 288.16C640.726 286.013 639.653 284.24 639.653 282.84C639.559 281.347 639.979 278.22 640.913 273.46C641.939 268.607 642.593 265.48 642.873 264.08C643.246 262.213 643.946 258.807 644.973 253.86C645.999 248.82 646.839 244.153 647.493 239.86L648.613 233.28C650.386 222.827 652.019 214.333 653.513 207.8C655.099 201.267 656.686 198 658.273 198C659.859 198 662.006 198.653 664.713 199.96C667.513 201.267 670.126 202.947 672.553 205C674.979 206.96 676.613 208.827 677.453 210.6C678.946 213.96 680.906 221.147 683.333 232.16C685.013 239.813 686.273 245.087 687.113 247.98C691.126 241.913 696.259 232.627 702.513 220.12C706.526 212.187 709.559 206.54 711.613 203.18C713.759 199.727 715.673 198 717.353 198C719.126 198 721.506 198.793 724.493 200.38C727.573 201.967 730.233 203.833 732.473 205.98C734.806 208.127 735.973 209.993 735.973 211.58C735.973 212.887 735.413 216.573 734.293 222.64C733.173 228.613 732.473 232.347 732.193 233.84L728.553 253.58C727.619 259.087 726.639 266.32 725.613 275.28C724.679 282.933 723.839 288.3 723.093 291.38C722.439 294.46 721.366 296 719.873 296C717.726 296 715.159 295.253 712.173 293.76C709.279 292.173 706.713 290.307 704.473 288.16C702.326 286.013 701.253 284.24 701.253 282.84C701.159 281.627 701.486 279.06 702.233 275.14C703.073 271.127 704.006 266.6 705.033 261.56C705.873 257.547 706.339 255.26 706.433 254.7L711.473 239.16L709.513 238.46L708.113 241.26C704.473 248.727 701.533 254.56 699.293 258.76C697.146 262.867 695.373 265.807 693.973 267.58C693.039 268.7 691.359 269.633 688.933 270.38C686.506 271.033 684.126 271.36 681.793 271.36C679.366 271.36 677.733 270.94 676.893 270.1C676.053 269.353 675.306 267.813 674.653 265.48C674.093 263.053 673.299 259.32 672.273 254.28C672.086 253.253 671.573 250.78 670.733 246.86C669.893 242.847 668.959 239.207 667.933 235.94L666.953 253.58C666.019 259.087 665.039 266.32 664.013 275.28C663.079 282.933 662.239 288.3 661.493 291.38C660.839 294.46 659.766 296 658.273 296ZM808.211 198C809.984 199.027 811.291 200.473 812.131 202.34C813.064 204.113 813.531 206.073 813.531 208.22C813.531 210.087 813.157 211.953 812.411 213.82C811.664 215.687 810.684 217.227 809.471 218.44C797.431 218.627 787.397 219.093 779.371 219.84C777.784 225.533 776.291 231.88 774.891 238.88C784.224 238.133 792.111 237.013 798.551 235.52C800.417 236.64 801.817 238.133 802.751 240C803.777 241.773 804.291 243.733 804.291 245.88C804.291 247.84 803.871 249.707 803.031 251.48C802.284 253.16 801.211 254.513 799.811 255.54C798.037 255.727 796.311 255.867 794.631 255.96C792.951 256.053 791.317 256.147 789.731 256.24L771.671 257.5L769.151 270.1L767.751 276.82C773.444 276.26 778.577 275.513 783.151 274.58C787.817 273.553 792.717 272.153 797.851 270.38C800.464 271.593 802.471 273.32 803.871 275.56C805.364 277.707 806.111 280.087 806.111 282.7C806.111 286.433 804.664 289.747 801.771 292.64C795.984 293.76 789.497 294.6 782.311 295.16C775.124 295.72 768.451 296 762.291 296C760.611 296 758.417 295.16 755.711 293.48C753.004 291.8 750.577 289.84 748.431 287.6C746.377 285.36 745.351 283.447 745.351 281.86C745.351 280.46 746.424 275.047 748.571 265.62C750.157 258.713 751.697 251.527 753.191 244.06C754.217 238.927 754.731 236.36 754.731 236.36C756.224 229.08 757.204 223.807 757.671 220.54L751.791 220.96C750.017 220.027 748.571 218.673 747.451 216.9C746.424 215.033 745.911 213.027 745.911 210.88C745.911 207.147 747.357 203.833 750.251 200.94C763.037 200.753 774.144 200.473 783.571 200.1C793.091 199.727 801.304 199.027 808.211 198ZM920.098 198C921.871 198 924.251 198.793 927.238 200.38C930.318 201.967 932.978 203.833 935.218 205.98C937.551 208.127 938.718 209.993 938.718 211.58C938.718 212.42 937.831 216.153 936.058 222.78C932.791 234.54 930.365 244.807 928.778 253.58C927.845 259.087 926.865 266.32 925.838 275.28C924.905 282.933 924.065 288.3 923.318 291.38C922.665 294.46 921.591 296 920.098 296C917.391 296 914.218 294.88 910.578 292.64C907.031 290.307 903.951 287.46 901.338 284.1C899.938 282.233 897.978 278.593 895.458 273.18C892.938 267.767 890.465 261.7 888.038 254.98C885.705 248.167 883.931 241.82 882.718 235.94L881.738 253.58C880.805 259.087 879.825 266.32 878.798 275.28C877.865 282.933 877.025 288.3 876.278 291.38C875.625 294.46 874.551 296 873.058 296C870.911 296 868.345 295.253 865.358 293.76C862.465 292.173 859.898 290.307 857.658 288.16C855.511 286.013 854.438 284.24 854.438 282.84C854.345 281.347 854.765 278.22 855.698 273.46C856.725 268.607 857.378 265.48 857.658 264.08C858.031 262.213 858.731 258.807 859.758 253.86C860.785 248.82 861.625 244.153 862.278 239.86L863.398 233.28C865.171 222.827 866.805 214.333 868.298 207.8C869.885 201.267 871.471 198 873.058 198C874.645 198 876.791 198.7 879.498 200.1C882.298 201.407 884.818 203.04 887.058 205C889.391 206.96 890.885 208.827 891.538 210.6C895.925 222.36 901.291 238.227 907.638 258.2L909.318 239.86L910.438 233.28C912.211 222.827 913.845 214.333 915.338 207.8C916.925 201.267 918.511 198 920.098 198ZM1010.42 198C1012.19 199.027 1013.5 200.473 1014.34 202.34C1015.27 204.113 1015.74 206.073 1015.74 208.22C1015.74 210.087 1015.36 211.953 1014.62 213.82C1013.87 215.687 1012.89 217.227 1011.68 218.44C999.638 218.627 989.604 219.093 981.578 219.84C979.991 225.533 978.498 231.88 977.098 238.88C986.431 238.133 994.318 237.013 1000.76 235.52C1002.62 236.64 1004.02 238.133 1004.96 240C1005.98 241.773 1006.5 243.733 1006.5 245.88C1006.5 247.84 1006.08 249.707 1005.24 251.48C1004.49 253.16 1003.42 254.513 1002.02 255.54C1000.24 255.727 998.518 255.867 996.838 255.96C995.158 256.053 993.524 256.147 991.938 256.24L973.878 257.5L971.358 270.1L969.958 276.82C975.651 276.26 980.784 275.513 985.358 274.58C990.024 273.553 994.924 272.153 1000.06 270.38C1002.67 271.593 1004.68 273.32 1006.08 275.56C1007.57 277.707 1008.32 280.087 1008.32 282.7C1008.32 286.433 1006.87 289.747 1003.98 292.64C998.191 293.76 991.704 294.6 984.518 295.16C977.331 295.72 970.658 296 964.498 296C962.818 296 960.624 295.16 957.918 293.48C955.211 291.8 952.784 289.84 950.638 287.6C948.584 285.36 947.558 283.447 947.558 281.86C947.558 280.46 948.631 275.047 950.778 265.62C952.364 258.713 953.904 251.527 955.398 244.06C956.424 238.927 956.938 236.36 956.938 236.36C958.431 229.08 959.411 223.807 959.878 220.54L953.998 220.96C952.224 220.027 950.778 218.673 949.658 216.9C948.631 215.033 948.118 213.027 948.118 210.88C948.118 207.147 949.564 203.833 952.458 200.94C965.244 200.753 976.351 200.473 985.778 200.1C995.298 199.727 1003.51 199.027 1010.42 198ZM1087.66 296C1084.86 296 1081.69 295.393 1078.14 294.18C1074.69 292.873 1071.61 291.38 1068.9 289.7C1066.29 287.927 1064.79 286.387 1064.42 285.08C1064.14 284.147 1063.81 281.58 1063.44 277.38C1063.16 273.087 1062.97 270.193 1062.88 268.7L1062.32 260.58C1057.19 270.66 1052.33 279.107 1047.76 285.92C1043.28 292.64 1039.73 296 1037.12 296C1034.97 296 1032.41 295.253 1029.42 293.76C1026.53 292.173 1023.96 290.307 1021.72 288.16C1019.57 286.013 1018.5 284.24 1018.5 282.84C1018.5 281.16 1019.57 275.047 1021.72 264.5C1024.05 252.553 1025.59 244.34 1026.34 239.86L1027.46 233.28C1029.23 222.827 1030.87 214.333 1032.36 207.8C1033.95 201.267 1035.53 198 1037.12 198C1038.89 198 1041.27 198.793 1044.26 200.38C1047.34 201.967 1050 203.833 1052.24 205.98C1054.57 208.127 1055.74 209.993 1055.74 211.58C1055.74 213.633 1055.13 216.807 1053.92 221.1C1052.71 225.3 1050.89 231.18 1048.46 238.74C1044.63 250.127 1041.88 259.133 1040.2 265.76L1042.44 266.6L1048.04 258.06C1052.43 251.34 1055.83 246.44 1058.26 243.36C1060.78 240.28 1063.07 238.74 1065.12 238.74C1073.71 238.74 1079.35 250.78 1082.06 274.86C1087.01 269.447 1090.55 262.353 1092.7 253.58C1094.85 244.807 1095.92 235.473 1095.92 225.58C1092.56 223.9 1089.39 222.733 1086.4 222.08C1083.41 221.333 1080.15 221.007 1076.6 221.1C1074.36 217.273 1073.24 213.633 1073.24 210.18C1073.24 207.287 1074.13 204.767 1075.9 202.62C1077.67 200.473 1080.38 198.933 1084.02 198C1093.91 199.587 1101.61 203.133 1107.12 208.64C1112.63 214.053 1115.38 220.773 1115.38 228.8C1115.38 235.147 1114.12 243.78 1111.6 254.7C1109.08 265.62 1105.67 275.233 1101.38 283.54C1097.18 291.847 1092.61 296 1087.66 296ZM1233.44 201.78C1234.56 208.593 1235.12 215.173 1235.12 221.52C1235.12 235.427 1232.88 248.12 1228.4 259.6C1223.92 271.08 1218.09 280.133 1210.9 286.76C1203.71 293.387 1196.39 296.7 1188.92 296.7C1185.19 296.7 1180.85 295.347 1175.9 292.64C1171.05 289.84 1166.85 286.527 1163.3 282.7C1159.75 278.78 1157.98 275.327 1157.98 272.34C1157.98 265.807 1159.1 255.307 1161.34 240.84C1163.58 226.373 1166.24 213.82 1169.32 203.18C1172.4 201.687 1175.62 200.94 1178.98 200.94C1182.53 200.94 1185.61 201.92 1188.22 203.88C1190.83 205.747 1192.61 208.407 1193.54 211.86C1190.83 218.113 1188.17 226.933 1185.56 238.32C1183.04 249.707 1181.78 258.993 1181.78 266.18C1181.78 273.18 1183.13 276.68 1185.84 276.68C1189.85 276.68 1193.77 274.113 1197.6 268.98C1201.43 263.753 1204.55 257.033 1206.98 248.82C1209.41 240.513 1210.62 232.113 1210.62 223.62C1210.62 217.273 1209.87 211.3 1208.38 205.7C1213.05 200.567 1217.99 198 1223.22 198C1226.86 198 1230.27 199.26 1233.44 201.78ZM1281.59 232.86C1282.33 228.193 1282.71 224.46 1282.71 221.66C1282.71 219.7 1282.52 218.16 1282.15 217.04C1281.87 215.92 1281.49 215.36 1281.03 215.36C1279.63 215.36 1277.99 216.527 1276.13 218.86C1274.35 221.193 1272.81 223.993 1271.51 227.26C1270.29 230.433 1269.69 233.28 1269.69 235.8C1269.69 238.973 1271.23 242.193 1274.31 245.46C1277.48 248.633 1282.1 252.553 1288.17 257.22C1292.74 260.58 1296.15 263.38 1298.39 265.62C1300.63 267.767 1301.79 269.727 1301.89 271.5C1301.98 275.42 1299.93 279.293 1295.73 283.12C1291.53 286.853 1286.25 289.933 1279.91 292.36C1273.65 294.787 1267.82 296 1262.41 296C1258.21 296 1253.87 294.973 1249.39 292.92C1244.91 290.773 1241.17 288.3 1238.19 285.5C1235.2 282.607 1233.66 280.087 1233.57 277.94C1233.38 273.833 1234.73 270.52 1237.63 268C1240.52 265.387 1244.39 264.08 1249.25 264.08C1251.67 264.08 1254.15 264.407 1256.67 265.06C1257.79 271.22 1258.77 275.653 1259.61 278.36C1265.11 276.96 1271.09 274.533 1277.53 271.08C1256.71 255.307 1246.31 242.987 1246.31 234.12C1246.31 229.827 1247.89 224.693 1251.07 218.72C1254.24 212.653 1258.44 207.473 1263.67 203.18C1268.89 198.793 1274.4 196.6 1280.19 196.6C1284.48 196.6 1288.63 198.047 1292.65 200.94C1296.66 203.833 1299.93 207.38 1302.45 211.58C1304.97 215.78 1306.23 219.7 1306.23 223.34C1306.23 226.887 1304.78 229.733 1301.89 231.88C1299.09 233.933 1295.59 234.96 1291.39 234.96C1288.12 234.96 1284.85 234.26 1281.59 232.86ZM1374.77 198C1376.55 199.027 1377.85 200.473 1378.69 202.34C1379.63 204.113 1380.09 206.073 1380.09 208.22C1380.09 210.087 1379.72 211.953 1378.97 213.82C1378.23 215.687 1377.25 217.227 1376.03 218.44C1363.99 218.627 1353.96 219.093 1345.93 219.84C1344.35 225.533 1342.85 231.88 1341.45 238.88C1350.79 238.133 1358.67 237.013 1365.11 235.52C1366.98 236.64 1368.38 238.133 1369.31 240C1370.34 241.773 1370.85 243.733 1370.85 245.88C1370.85 247.84 1370.43 249.707 1369.59 251.48C1368.85 253.16 1367.77 254.513 1366.37 255.54C1364.6 255.727 1362.87 255.867 1361.19 255.96C1359.51 256.053 1357.88 256.147 1356.29 256.24L1338.23 257.5L1335.71 270.1L1334.31 276.82C1340.01 276.26 1345.14 275.513 1349.71 274.58C1354.38 273.553 1359.28 272.153 1364.41 270.38C1367.03 271.593 1369.03 273.32 1370.43 275.56C1371.93 277.707 1372.67 280.087 1372.67 282.7C1372.67 286.433 1371.23 289.747 1368.33 292.64C1362.55 293.76 1356.06 294.6 1348.87 295.16C1341.69 295.72 1335.01 296 1328.85 296C1327.17 296 1324.98 295.16 1322.27 293.48C1319.57 291.8 1317.14 289.84 1314.99 287.6C1312.94 285.36 1311.91 283.447 1311.91 281.86C1311.91 280.46 1312.99 275.047 1315.13 265.62C1316.72 258.713 1318.26 251.527 1319.75 244.06C1320.78 238.927 1321.29 236.36 1321.29 236.36C1322.79 229.08 1323.77 223.807 1324.23 220.54L1318.35 220.96C1316.58 220.027 1315.13 218.673 1314.01 216.9C1312.99 215.033 1312.47 213.027 1312.47 210.88C1312.47 207.147 1313.92 203.833 1316.81 200.94C1329.6 200.753 1340.71 200.473 1350.13 200.1C1359.65 199.727 1367.87 199.027 1374.77 198ZM1443.34 296.84C1436.71 293.013 1430.83 288.253 1425.7 282.56C1420.56 276.867 1416.41 270.38 1413.24 263.1L1412.68 268.98C1411.74 278.033 1410.81 284.8 1409.88 289.28C1409.04 293.76 1407.82 296 1406.24 296C1404.09 296 1401.52 295.207 1398.54 293.62C1395.64 292.033 1393.08 290.167 1390.84 288.02C1388.69 285.873 1387.62 284.1 1387.62 282.7C1387.62 280.273 1389.9 267.907 1394.48 245.6C1395.04 242.987 1395.92 238.553 1397.14 232.3C1398.44 225.953 1399.33 221.38 1399.8 218.58L1394.62 219.42C1391.72 216.713 1390.28 213.307 1390.28 209.2C1390.28 206.307 1391.07 203.32 1392.66 200.24C1400.22 198.28 1407.87 197.3 1415.62 197.3C1423.83 197.3 1431.44 198.373 1438.44 200.52C1445.53 202.667 1451.27 205.98 1455.66 210.46C1460.04 214.847 1462.24 220.353 1462.24 226.98C1462.24 234.727 1459.2 241.4 1453.14 247C1447.07 252.507 1438.16 256.193 1426.4 258.06C1431.06 262.447 1435.73 265.993 1440.4 268.7C1445.16 271.313 1451.13 273.833 1458.32 276.26C1458.69 277.753 1458.88 279.387 1458.88 281.16C1458.88 285.453 1457.57 289 1454.96 291.8C1452.34 294.6 1448.47 296.28 1443.34 296.84ZM1415.9 244.48C1423.27 243.733 1429.29 241.773 1433.96 238.6C1438.72 235.427 1441.1 231.647 1441.1 227.26C1441.1 224.46 1439.7 222.127 1436.9 220.26C1434.19 218.3 1430.5 217.32 1425.84 217.32C1424.16 217.32 1422.34 217.46 1420.38 217.74C1418.88 226.327 1418.18 230.433 1418.28 230.06C1417.44 234.633 1416.64 239.44 1415.9 244.48ZM1495.76 259.74C1495.39 259.927 1494.73 260.02 1493.8 260.02C1491.93 260.02 1489.88 259.413 1487.64 258.2C1485.49 256.987 1483.63 255.54 1482.04 253.86C1480.45 252.087 1479.66 250.547 1479.66 249.24C1479.57 246.16 1480.36 238.693 1482.04 226.84C1483.81 214.987 1485.91 204.207 1488.34 194.5C1490.77 184.793 1493.1 179.94 1495.34 179.94C1497.58 179.94 1500.01 180.687 1502.62 182.18C1505.33 183.58 1507.61 185.353 1509.48 187.5C1511.35 189.553 1512.28 191.42 1512.28 193.1C1512.28 194.5 1511.21 198.093 1509.06 203.88C1507.94 207.053 1506.77 210.507 1505.56 214.24C1504.35 217.973 1503.41 221.473 1502.76 224.74C1501.73 229.5 1500.85 235.707 1500.1 243.36C1499.54 248.68 1498.93 252.647 1498.28 255.26C1497.72 257.78 1496.88 259.273 1495.76 259.74ZM1481.62 296C1480.03 296 1478.35 295.16 1476.58 293.48C1474.9 291.707 1473.45 289.607 1472.24 287.18C1471.12 284.753 1470.56 282.607 1470.56 280.74C1470.56 279.153 1471.63 277.473 1473.78 275.7C1476.02 273.927 1478.68 272.433 1481.76 271.22C1484.84 270.007 1487.59 269.4 1490.02 269.4C1491.61 269.4 1493.19 270.24 1494.78 271.92C1496.37 273.507 1497.63 275.467 1498.56 277.8C1499.59 280.04 1500.1 281.953 1500.1 283.54C1500.1 285.22 1498.98 287.04 1496.74 289C1494.59 290.96 1492.03 292.64 1489.04 294.04C1486.15 295.347 1483.67 296 1481.62 296Z" fill="#4E6B42"/>
<path d="M170.8 123.989C169.952 134.812 171.883 145.687 176.638 155.447C181.55 165.528 187.386 177 188.507 177C190.16 177 170.624 176.353 163.803 176.128C162.26 176.078 160.733 175.992 159.194 175.87L135.551 174L125.293 172.249C118.499 171.089 111.903 168.978 105.697 165.979L103.621 164.976C98.6983 162.597 94.1408 159.527 90.0867 155.859L89.6229 155.439C84.9159 151.18 80.9986 146.122 78.0516 140.5V140.5L76.2858 136.853C73.5845 131.273 73.6374 124.753 76.4287 119.218V119.218C77.5019 117.09 78.9486 115.172 80.7 113.555L84.5516 110L89.5 106V106C92.1376 103.692 95.2271 101.958 98.5758 100.924C100.483 100.335 102.639 99.6728 104.5 99.1108C109.101 97.7217 106.868 91.5536 109.5 87.5C109.872 86.9266 110.312 86.2519 110.777 85.5377C113.558 81.2733 117.558 77.9448 122.25 75.9692V75.9692C123.781 75.3246 125.371 74.8305 126.997 74.494L132.912 73.2703C136.938 72.4373 141.11 72.65 145.03 73.888V73.888C147.364 74.625 149.572 75.7139 151.577 77.117L152.798 77.971C155.617 79.9436 158.118 82.3356 160.214 85.064L160.988 86.0703C162.993 88.681 164.686 91.5185 166.029 94.5244L166.555 95.7005C170.162 103.772 171.69 112.617 171 121.431L170.8 123.989Z" fill="#A6C48A"/>
<path d="M1448.8 18.9887C1447.95 29.8125 1449.88 40.6868 1454.64 50.4468C1459.55 60.5279 1465.39 72 1466.51 72C1468.16 72 1448.62 71.3527 1441.8 71.1284C1440.26 71.0776 1438.73 70.992 1437.19 70.8703L1413.55 69L1403.29 67.2486C1396.5 66.0886 1389.9 63.9782 1383.7 60.9793L1381.62 59.976C1376.7 57.597 1372.14 54.5269 1368.09 50.8586L1367.62 50.4389C1362.92 46.1798 1359 41.1224 1356.05 35.5V35.5L1354.29 31.8526C1351.58 26.2729 1351.64 19.7532 1354.43 14.2181V14.2181C1355.5 12.09 1356.95 10.172 1358.7 8.55538L1362.55 5L1367.5 1V1C1370.14 -1.30792 1373.23 -3.04176 1376.58 -4.07608C1378.48 -4.66517 1380.64 -5.32716 1382.5 -5.88917C1387.1 -7.27834 1384.87 -13.4464 1387.5 -17.5C1387.87 -18.0734 1388.31 -18.7481 1388.78 -19.4623C1391.56 -23.7267 1395.56 -27.0552 1400.25 -29.0308V-29.0308C1401.78 -29.6754 1403.37 -30.1695 1405 -30.506L1410.91 -31.7297C1414.94 -32.5627 1419.11 -32.35 1423.03 -31.112V-31.112C1425.36 -30.375 1427.57 -29.2861 1429.58 -27.883L1430.8 -27.029C1433.62 -25.0564 1436.12 -22.6644 1438.21 -19.936L1438.99 -18.9297C1440.99 -16.319 1442.69 -13.4815 1444.03 -10.4756L1444.55 -9.29954C1448.16 -1.2285 1449.69 7.61746 1449 16.4309L1448.8 18.9887Z" fill="#A6C48A"/>
<path d="M1557.81 152.011C1558.65 141.188 1556.72 130.313 1551.97 120.553C1547.06 110.472 1541.22 99 1540.1 99C1538.45 99 1557.98 99.6473 1564.8 99.8716C1566.35 99.9224 1567.87 100.008 1569.41 100.13L1593.05 102L1603.31 103.751C1610.11 104.911 1616.7 107.022 1622.91 110.021L1624.98 111.024C1629.91 113.403 1634.46 116.473 1638.52 120.141L1638.98 120.561C1643.69 124.82 1647.61 129.878 1650.55 135.5V135.5L1652.32 139.147C1655.02 144.727 1654.97 151.247 1652.18 156.782V156.782C1651.1 158.91 1649.66 160.828 1647.91 162.445L1644.05 166L1639.11 170V170C1636.47 172.308 1633.38 174.042 1630.03 175.076C1628.12 175.665 1625.97 176.327 1624.11 176.889C1619.5 178.278 1621.74 184.446 1619.11 188.5C1618.73 189.073 1618.29 189.748 1617.83 190.462C1615.05 194.727 1611.05 198.055 1606.36 200.031V200.031C1604.82 200.675 1603.23 201.169 1601.61 201.506L1595.69 202.73C1591.67 203.563 1587.5 203.35 1583.58 202.112V202.112C1581.24 201.375 1579.03 200.286 1577.03 198.883L1575.81 198.029C1572.99 196.056 1570.49 193.664 1568.39 190.936L1567.62 189.93C1565.61 187.319 1563.92 184.481 1562.58 181.476L1562.05 180.3C1558.44 172.228 1556.92 163.383 1557.61 154.569L1557.81 152.011Z" fill="#A6C48A"/>
<path d="M1709.8 51.9887C1708.95 62.8125 1710.88 73.6868 1715.64 83.4468C1720.55 93.5279 1726.39 105 1727.51 105C1729.16 105 1709.62 104.353 1702.8 104.128C1701.26 104.078 1699.73 103.992 1698.19 103.87L1674.55 102L1664.29 100.249C1657.5 99.0886 1650.9 96.9782 1644.7 93.9793L1642.62 92.976C1637.7 90.597 1633.14 87.5269 1629.09 83.8586L1628.62 83.4389C1623.92 79.1798 1620 74.1224 1617.05 68.5V68.5L1615.29 64.8526C1612.58 59.2729 1612.64 52.7532 1615.43 47.2181V47.2181C1616.5 45.09 1617.95 43.172 1619.7 41.5554L1623.55 38L1628.5 34V34C1631.14 31.6921 1634.23 29.9582 1637.58 28.9239C1639.48 28.3348 1641.64 27.6728 1643.5 27.1108C1648.1 25.7217 1645.87 19.5536 1648.5 15.5C1648.87 14.9266 1649.31 14.2519 1649.78 13.5377C1652.56 9.27328 1656.56 5.94476 1661.25 3.96915V3.96915C1662.78 3.32458 1664.37 2.83054 1666 2.49401L1671.91 1.27026C1675.94 0.437333 1680.11 0.650002 1684.03 1.88798V1.88798C1686.36 2.62501 1688.57 3.7139 1690.58 5.11705L1691.8 5.97102C1694.62 7.94359 1697.12 10.3356 1699.21 13.064L1699.99 14.0703C1701.99 16.681 1703.69 19.5185 1705.03 22.5244L1705.55 23.7005C1709.16 31.7715 1710.69 40.6175 1710 49.4309L1709.8 51.9887Z" fill="#A6C48A"/>
<path d="M1728.8 347.989C1727.95 358.812 1729.88 369.687 1734.64 379.447C1739.55 389.528 1745.39 401 1746.51 401C1748.16 401 1728.62 400.353 1721.8 400.128C1720.26 400.078 1718.73 399.992 1717.19 399.87L1693.55 398L1683.29 396.249C1676.5 395.089 1669.9 392.978 1663.7 389.979L1661.62 388.976C1656.7 386.597 1652.14 383.527 1648.09 379.859L1647.62 379.439C1642.92 375.18 1639 370.122 1636.05 364.5V364.5L1634.29 360.853C1631.58 355.273 1631.64 348.753 1634.43 343.218V343.218C1635.5 341.09 1636.95 339.172 1638.7 337.555L1642.55 334L1647.5 330V330C1650.14 327.692 1653.23 325.958 1656.58 324.924C1658.48 324.335 1660.64 323.673 1662.5 323.111C1667.1 321.722 1664.87 315.554 1667.5 311.5C1667.87 310.927 1668.31 310.252 1668.78 309.538C1671.56 305.273 1675.56 301.945 1680.25 299.969V299.969C1681.78 299.325 1683.37 298.831 1685 298.494L1690.91 297.27C1694.94 296.437 1699.11 296.65 1703.03 297.888V297.888C1705.36 298.625 1707.57 299.714 1709.58 301.117L1710.8 301.971C1713.62 303.944 1716.12 306.336 1718.21 309.064L1718.99 310.07C1720.99 312.681 1722.69 315.519 1724.03 318.524L1724.55 319.7C1728.16 327.772 1729.69 336.617 1729 345.431L1728.8 347.989Z" fill="#A6C48A"/>
<path d="M-27.1942 36.9887C-26.3467 47.8125 -28.2773 58.6868 -33.0327 68.4468C-37.9445 78.5279 -43.7804 90 -44.9014 90C-46.5544 90 -27.0181 89.3527 -20.1975 89.1284C-18.6549 89.0776 -17.1272 88.992 -15.5885 88.8703L8.05399 87L18.3124 85.2486C25.1062 84.0886 31.703 81.9782 37.9085 78.9793L39.9845 77.976C44.9072 75.597 49.4647 72.5269 53.5188 68.8586L53.9825 68.4389C58.6896 64.1798 62.6069 59.1224 65.5538 53.5V53.5L67.3197 49.8526C70.021 44.2729 69.9681 37.7532 67.1767 32.2181V32.2181C66.1035 30.09 64.6568 28.172 62.9055 26.5554L59.0538 23L54.1055 19V19C51.4678 16.6921 48.3784 14.9582 45.0297 13.9239C43.1225 13.3348 40.9668 12.6728 39.1055 12.1108C34.5047 10.7217 36.7374 4.55361 34.1055 0.5C33.7332 -0.0734399 33.2939 -0.748081 32.8281 -1.46233C30.0473 -5.72672 26.0477 -9.05524 21.3557 -11.0308V-11.0308C19.8249 -11.6754 18.2349 -12.1695 16.6084 -12.506L10.6936 -13.7297C6.66777 -14.5627 2.49566 -14.35 -1.4246 -13.112V-13.112C-3.75853 -12.375 -5.96632 -11.2861 -7.97173 -9.88295L-9.19225 -9.02898C-12.0115 -7.05641 -14.5126 -4.66445 -16.6089 -1.93599L-17.3821 -0.929717C-19.388 1.68104 -21.08 4.51855 -22.4234 7.52438L-22.9491 8.70046C-26.5562 16.7715 -28.0845 25.6175 -27.3944 34.4309L-27.1942 36.9887Z" fill="#A6C48A"/>
</svg>
