<svg width="324" height="306" viewBox="0 0 324 306" fill="none" xmlns="http://www.w3.org/2000/svg">
<path d="M201.829 232.713C207.936 240.2 204.093 260.38 190.827 271.202C177.56 282.024 166.327 288.702 138.327 285.702C127.327 285.708 117.062 269.031 130.328 258.209C143.594 247.387 195.721 225.226 201.829 232.713Z" fill="#DDA624"/>
<path d="M118.829 225.713C124.936 233.2 121.093 253.38 107.827 264.202C94.5605 275.024 83.3268 281.702 55.3268 278.702C44.3269 278.708 34.0618 262.031 47.3281 251.209C60.5945 240.387 112.721 218.226 118.829 225.713Z" fill="#DDA624"/>
<path d="M271 186.5C271 229.854 210.335 265 135.5 265C60.6654 265 0 222.354 0 179C0 135.646 60.6654 100.5 135.5 100.5C210.335 100.5 271 143.146 271 186.5Z" fill="#F8F56E"/>
<path d="M315.922 126.972C319.132 126.165 321.875 129.386 320.565 132.425C309.973 156.984 302.602 172.562 287.25 197.003C280.54 205.86 264.642 218.201 252.818 225.896C250.989 227.087 248.557 226.526 247.381 224.688L201.505 152.965C200.729 151.752 200.665 150.216 201.337 148.943L212.63 127.546C213.662 125.59 209.212 120.885 210.965 122.233C211.499 122.644 231.83 133.069 252.5 138.003C263.649 139.299 270.547 139.058 284 135.003L315.922 126.972Z" fill="#F8F56E"/>
<path d="M200.5 74.5C200.5 115.645 152.542 137 94 137C35.4578 137 5.5 121.645 5.5 80.5C5.5 39.3548 45.4578 0 104 0C162.542 0 200.5 33.3548 200.5 74.5Z" fill="#F8F56E"/>
<path d="M282.5 186C282.5 192.482 279.122 198.943 272.447 205.369C265.777 211.789 256.262 217.721 245.16 223.017C223.154 233.515 195.975 241.022 175.53 244.998C155.167 244.844 136.455 234.683 122.688 220.32C108.748 205.777 100.5 187.58 100.5 172.5C100.5 157.716 108.462 143.953 122.082 133.717C135.704 123.479 154.75 117 176 117C196.971 117 223.913 126.681 245.721 140.678C256.573 147.642 265.904 155.519 272.465 163.514C279.087 171.58 282.5 179.282 282.5 186Z" fill="#ECE848" stroke="#CCC935" stroke-width="10"/>
<circle cx="132" cy="73" r="3" fill="#D9D9D9"/>
<circle cx="126" cy="73" r="14" fill="#393939"/>
<circle cx="131" cy="78" r="3" fill="#D9D9D9"/>
<circle cx="122.5" cy="68.5" r="7.5" fill="#D9D9D9"/>
<circle cx="32" cy="73" r="14" fill="#393939"/>
<circle cx="37" cy="78" r="3" fill="#D9D9D9"/>
<circle cx="28.5" cy="68.5" r="7.5" fill="#D9D9D9"/>
<path d="M20.2128 100.831C19.2371 100.689 19.1447 99.3113 20.0835 98.9035L78.476 73.5392C79.0967 73.2696 79.757 73.6684 79.7967 74.3368L81.823 108.518C81.8622 109.18 81.2705 109.741 80.6317 109.648L20.2128 100.831Z" fill="#E0AC1E"/>
<path d="M83.7168 91.9692C83.7168 101.747 83.5305 109.673 80.2168 109.673C76.9031 109.673 71.7168 101.747 71.7168 91.9692C71.7168 82.1915 75.4031 73.6328 78.7168 73.6328C82.0305 73.6328 83.7168 82.1915 83.7168 91.9692Z" fill="#E0AC1E"/>
</svg>
